<?xml version="1.0" encoding="UTF-8" standalone="no"?>
<svg
   id="Layer_1"
   data-name="Layer 1"
   width="77.2"
   height="77.12"
   viewBox="0 0 77.2 77.12"
   version="1.1"
   sodipodi:docname="main_logo.svg"
   inkscape:version="1.3.2 (091e20e, 2023-11-25)"
   xmlns:inkscape="http://www.inkscape.org/namespaces/inkscape"
   xmlns:sodipodi="http://sodipodi.sourceforge.net/DTD/sodipodi-0.dtd"
   xmlns="http://www.w3.org/2000/svg"
   xmlns:svg="http://www.w3.org/2000/svg">
  <sodipodi:namedview
     id="namedview2"
     pagecolor="#ffffff"
     bordercolor="#000000"
     borderopacity="0.25"
     inkscape:showpageshadow="2"
     inkscape:pageopacity="0.0"
     inkscape:pagecheckerboard="0"
     inkscape:deskcolor="#d1d1d1"
     inkscape:zoom="3.0601659"
     inkscape:cx="38.560001"
     inkscape:cy="38.560001"
     inkscape:window-width="1312"
     inkscape:window-height="449"
     inkscape:window-x="0"
     inkscape:window-y="25"
     inkscape:window-maximized="0"
     inkscape:current-layer="Layer_1" />
  <defs
     id="defs1">
    <style
       id="style1">
      .cls-1 {
        fill: #0d6efd;
      }

      .cls-2, .cls-3 {
        fill: #fff;
      }

      .cls-2 {
        opacity: 0.18;
      }
    </style>
  </defs>
  <ellipse
     class="cls-1"
     cx="29.854738"
     cy="16.580666"
     rx="4.6997395"
     ry="6.6795745"
     transform="matrix(0.97893523,-0.20417103,0.21171458,0.97733154,0,0)"
     id="ellipse1"
     style="fill:#ffffff;stroke-width:0px" />
  <ellipse
     class="cls-1"
     cx="8.2844734"
     cy="24.693014"
     rx="4.673192"
     ry="6.7184124"
     transform="matrix(0.81426802,-0.5804891,0.59507635,0.80366917,0,0)"
     id="ellipse2"
     style="fill:#ffffff;stroke-width:0px" />
  <ellipse
     class="cls-1"
     cx="-14.444714"
     cy="23.548538"
     rx="4.6374264"
     ry="6.7700391"
     transform="matrix(0.5071265,-0.86187163,0.87008189,0.49290719,0,0)"
     id="ellipse3"
     style="fill:#ffffff;stroke-width:0px" />
  <ellipse
     class="cls-1"
     cx="-34.449612"
     cy="13.083184"
     rx="4.616158"
     ry="6.8003674"
     transform="matrix(0.10650677,-0.99431198,0.99472413,0.1025861,0,0)"
     id="ellipse4"
     style="fill:#ffffff;stroke-width:0px" />
  <ellipse
     class="cls-1"
     cx="-4.8908558"
     cy="48.636864"
     rx="6.7896552"
     ry="4.6236925"
     transform="matrix(0.95275072,-0.30375328,0.3143524,0.94930636,0,0)"
     id="ellipse5"
     style="fill:#ffffff;stroke-width:0px" />
  <ellipse
     class="cls-1"
     cx="-26.939674"
     cy="54.733147"
     rx="6.7448521"
     ry="4.6549439"
     transform="matrix(0.74941385,-0.66210186,0.67611376,0.73679724,0,0)"
     id="ellipse6"
     style="fill:#ffffff;stroke-width:0px" />
  <ellipse
     class="cls-1"
     cx="-49.100922"
     cy="51.408756"
     rx="6.6953044"
     ry="4.6890244"
     transform="matrix(0.41320319,-0.91063886,0.91637036,0.40033156,0,0)"
     id="ellipse7"
     style="fill:#ffffff;stroke-width:0px" />
  <ellipse
     class="cls-1"
     cx="38.91518"
     cy="67.815742"
     rx="4.7035236"
     ry="6.6740022"
     id="ellipse8"
     style="fill:#ffffff;stroke-width:0px" />
  <ellipse
     class="cls-1"
     cx="8.2820482"
     cy="42.743729"
     rx="4.673192"
     ry="6.7184124"
     transform="matrix(0.81426802,-0.5804891,0.59507635,0.80366917,0,0)"
     id="ellipse9"
     style="fill:#ffffff;stroke-width:0px" />
  <ellipse
     class="cls-1"
     cx="13.351381"
     cy="48.638958"
     rx="6.7896552"
     ry="4.6236925"
     transform="matrix(0.95275072,-0.30375328,0.3143524,0.94930636,0,0)"
     id="ellipse10"
     style="fill:#ffffff;stroke-width:0px" />
  <ellipse
     class="cls-1"
     cx="38.91518"
     cy="49.886883"
     rx="4.7035236"
     ry="6.6740022"
     id="ellipse11"
     style="fill:#ffffff;stroke-width:0px" />
  <ellipse
     class="cls-1"
     cx="-24.990938"
     cy="60.531006"
     rx="4.6236925"
     ry="6.7896552"
     transform="matrix(0.3143524,-0.94930636,0.95275072,0.30375328,0,0)"
     id="ellipse12"
     style="fill:#ffffff;stroke-width:0px" />
  <ellipse
     class="cls-1"
     cx="2.4429634"
     cy="54.282722"
     rx="6.7184124"
     ry="4.673192"
     transform="matrix(0.59507635,-0.80366917,0.81426802,0.5804891,0,0)"
     id="ellipse13"
     style="fill:#ffffff;stroke-width:0px" />
  <ellipse
     class="cls-1"
     cx="19.465837"
     cy="80.262154"
     rx="4.6890244"
     ry="6.6953044"
     transform="matrix(0.91637036,-0.40033156,0.41320319,0.91063886,0,0)"
     id="ellipse14"
     style="fill:#ffffff;stroke-width:0px" />
  <ellipse
     class="cls-1"
     cx="-3.1981657"
     cy="84.294373"
     rx="4.6549439"
     ry="6.7448521"
     transform="matrix(0.67611376,-0.73679724,0.74941385,0.66210186,0,0)"
     id="ellipse15"
     style="fill:#ffffff;stroke-width:0px" />
  <ellipse
     class="cls-1"
     cx="-25.000177"
     cy="78.77079"
     rx="4.6236925"
     ry="6.7896552"
     transform="matrix(0.3143524,-0.94930636,0.95275072,0.30375328,0,0)"
     id="ellipse16"
     style="fill:#ffffff;stroke-width:0px" />
  <ellipse
     class="cls-1"
     cx="64.307358"
     cy="42.431324"
     rx="6.8003674"
     ry="4.616158"
     transform="matrix(0.99472413,-0.1025861,0.10650677,0.99431198,0,0)"
     id="ellipse17"
     style="fill:#ffffff;stroke-width:0px" />
  <ellipse
     class="cls-1"
     cx="43.534897"
     cy="52.810638"
     rx="6.7700391"
     ry="4.6374264"
     transform="matrix(0.87008189,-0.49290719,0.5071265,0.86187163,0,0)"
     id="ellipse18"
     style="fill:#ffffff;stroke-width:0px" />
  <ellipse
     class="cls-1"
     cx="20.493137"
     cy="54.279858"
     rx="6.7184124"
     ry="4.673192"
     transform="matrix(0.59507635,-0.80366917,0.81426802,0.5804891,0,0)"
     id="ellipse19"
     style="fill:#ffffff;stroke-width:0px" />
  <ellipse
     class="cls-1"
     cx="-0.67840582"
     cy="46.217594"
     rx="6.6795745"
     ry="4.6997395"
     transform="matrix(0.21171458,-0.97733154,0.97893523,0.20417103,0,0)"
     id="ellipse20"
     style="fill:#ffffff;stroke-width:0px" />
</svg>
