<?xml version="1.0" encoding="UTF-8" standalone="no"?>
<!-- Created with Inkscape (http://www.inkscape.org/) -->

<svg
   width="80"
   height="60"
   viewBox="0 0 21.166666 15.875"
   version="1.1"
   id="svg1"
   inkscape:version="1.3.2 (091e20e, 2023-11-25)"
   sodipodi:docname="globe-west.svg"
   xmlns:inkscape="http://www.inkscape.org/namespaces/inkscape"
   xmlns:sodipodi="http://sodipodi.sourceforge.net/DTD/sodipodi-0.dtd"
   xmlns="http://www.w3.org/2000/svg"
   xmlns:svg="http://www.w3.org/2000/svg">
  <sodipodi:namedview
     id="namedview1"
     pagecolor="#ffffff"
     bordercolor="#000000"
     borderopacity="0.25"
     inkscape:showpageshadow="2"
     inkscape:pageopacity="0.0"
     inkscape:pagecheckerboard="0"
     inkscape:deskcolor="#d1d1d1"
     inkscape:document-units="mm"
     inkscape:zoom="3.1526905"
     inkscape:cx="37.269755"
     inkscape:cy="43.296353"
     inkscape:window-width="2256"
     inkscape:window-height="1242"
     inkscape:window-x="119"
     inkscape:window-y="190"
     inkscape:window-maximized="0"
     inkscape:current-layer="layer1" />
  <defs
     id="defs1" />
  <g
     inkscape:label="Layer 1"
     inkscape:groupmode="layer"
     id="layer1">
    <path
       fill="#943fa5"
       d="m 18.565483,7.969172 c 0,-4.3634576 -3.537539,-7.90099879 -7.900999,-7.90099879 -4.2504742,0 -7.7158525,3.35687099 -7.8928343,7.56388999 -0.00211,0.051616 -0.00265,0.1040297 -0.00368,0.1559127 -0.0013,0.060572 -0.00449,0.120622 -0.00449,0.1811961 v 0.026599 c 0,4.348973 3.5375405,7.874399 7.9009983,7.874399 4.363457,0 7.901,-3.525426 7.901,-7.874399 l -4.16e-4,-0.012901 4.16e-4,-0.013698 m -6.323434,7.203341 c -0.138267,-0.07506 -0.271004,-0.198052 -0.324995,-0.365553 -0.09771,-0.303399 -0.02212,-0.538849 0.09007,-0.812751 0.08955,-0.219384 -0.03081,-0.472742 0.0287,-0.702398 0.116144,-0.446933 0.256256,-0.931264 0.213063,-1.411382 -0.02686,-0.294707 -0.09218,-0.308139 -0.310246,-0.478273 C 11.708715,11.22175 11.708715,10.966548 11.554909,10.738473 11.415588,10.531203 11.790622,9.7437371 11.686065,9.695804 11.568868,9.6418163 11.30234,9.7123981 11.218063,9.6004657 11.127465,9.4798424 11.064257,9.3373613 10.939685,9.2438661 10.859358,9.1835538 10.504076,8.9818159 10.409264,8.996038 9.9317802,9.0674105 9.4145288,8.6017782 9.1098135,8.2981166 8.89991,8.0897934 8.8124727,7.8561875 8.6586665,7.6152064 8.5285635,7.4110976 8.3315647,7.3934523 8.2349095,7.1403562 8.1335131,6.8759365 8.1938221,6.5372474 8.1630104,6.2591322 8.1295625,5.960211 7.9810243,5.8648725 7.7953504,5.6362701 7.3981937,5.1456181 7.252025,4.4134589 6.498533,4.4134589 c -0.4047944,0 -0.376087,0.881751 -0.7021352,0.7634998 C 5.4276846,5.0434319 4.8572322,5.6749845 4.8653965,5.5899174 4.9085897,5.149042 5.3613157,4.934661 5.4055619,4.8032413 5.5501501,4.3718468 4.7595233,4.4750866 4.860919,4.1153276 4.9104298,3.9383457 5.4134624,3.8095594 5.3094328,3.7039493 5.2780907,3.6718167 4.8933133,3.4018673 4.9122759,3.3884357 4.9836483,3.3383935 5.2938939,3.4969428 5.2264722,3.2909899 5.2038192,3.2225145 5.1672161,3.1595702 5.1324502,3.0960991 A 7.362414,7.362414 0 0 1 5.6381143,2.57595 C 5.905168,2.5540879 6.1822295,2.5707021 6.2825723,2.5901725 6.9188661,2.7155351 7.140094,3.0376326 7.7763878,2.7992855 8.08242,2.6849851 9.2104194,2.8832997 9.3721268,3.2040805 9.4600909,3.3794827 9.7877187,3.0979437 9.9154516,3.078981 10.052402,3.058441 10.361858,3.2693952 10.456144,3.1400846 10.704498,2.8000779 10.29707,2.6589135 10.778241,2.9207 c 0.322624,0.1756652 0.953124,-0.5967888 0.753491,0.3110355 -0.144061,0.6544666 -0.673427,0.6689517 -1.06163,1.0953421 -0.382144,0.4198063 0.756125,0.5341076 0.785359,0.9133553 0.08428,1.0919182 0.66658,-0.089018 0.510668,-0.4772204 -0.301554,-0.7519116 0.343167,-0.5454319 0.602846,-0.067686 0.144062,0.2652096 0.253622,0.041878 0.430078,-0.050567 0.143009,-0.074533 0.181196,0.3292082 0.21201,0.3995271 0.101397,0.2336059 0.434555,0.3033979 0.378195,0.6041625 -0.06268,0.3315786 -0.298395,0.2320263 -0.52884,0.2881236 -0.25731,0.062419 0.04161,0.2789051 0.0042,0.357915 -0.04055,0.086385 -0.350804,0.1222025 -0.4335,0.1711883 -0.243351,0.1432716 -0.09455,0.4227033 -0.284963,0.572822 -0.13063,0.1032397 -0.262313,0.036079 -0.287596,0.2293928 -0.02976,0.2278119 -0.449567,0.3010278 -0.395051,0.5188319 0.01501,0.059781 0.135898,0.5064544 0.05979,0.5301569 -0.03503,0.011326 -0.311826,-0.3884657 -0.387412,-0.4284975 -0.149592,-0.079273 -0.829605,-0.014482 -0.917043,0.4356089 -0.05663,0.29102 0.411642,0.750595 0.530948,0.3497506 0.147748,-0.4932859 0.218067,0.2873331 0.182512,0.3178838 0.07058,0.061627 0.483542,-0.1013964 0.361076,0.1843563 -0.05189,0.1208859 0.05083,0.436135 0.234133,0.338953 0.07664,-0.040555 0.274165,0.081644 0.308665,0.016069 A 0.56360458,0.56360458 0 0 1 12.031596,9.348954 c 0.18462,-0.1079804 0.460891,-0.00662 0.663157,0.00525 0.123519,0.00712 1.1359,0.5593904 1.14143,0.670268 0.02212,0.414803 0.787467,0.360813 0.904929,0.509089 0.315777,0.401896 0.218595,0.197788 -0.01186,0.71267 -0.116145,0.259152 -0.01502,0.577036 -0.296289,0.764817 -0.13537,0.09007 -0.300501,0.04503 -0.420859,0.172504 -0.108508,0.115091 -0.06584,0.252569 -0.131685,0.385568 -0.07927,0.158284 -1.144591,1.115622 -1.214909,1.347122 -0.03503,0.116145 -0.352911,0.217276 -0.0848,0.328681 0.155913,0.04582 -0.345274,0.519622 -0.104293,0.71583 0.05873,0.04767 0.09719,0.08797 0.126153,0.124047 -0.120359,0.03213 -0.239664,0.06137 -0.360549,0.08771 M 11.611017,0.65732452 c -0.01028,0.038191 0.0052,0.0832236 0.07137,0.127206 0.149065,0.0987624 -0.04267,0.31814698 -0.248354,0.17671875 -0.205163,-0.14142747 -0.666582,0.0634746 -0.634714,0.16960803 0.03135,0.1061369 0.173822,0.1482758 0.393996,0.063734 0.219648,-0.084804 0.310246,0.012642 0.347118,0.1132477 0.02528,0.068212 0,0.1061368 -0.0071,0.1980515 -0.0066,0.091915 -0.262313,0.02818 -0.47485,0.042669 -0.213038,0.014223 -0.439797,-0.042669 -0.433213,-0.1630242 0.0071,-0.1200952 -0.226758,-0.3394798 -0.366343,-0.43113076 -0.13932,-0.0916516 0.0611,-0.28970329 0.245985,-0.14142815 0.184093,0.14853889 0.191468,-0.0281799 0.404267,-0.084541 0.120886,-0.0321326 0.07242,-0.0803266 0.03135,-0.12615241 0.226495,0.007899 0.44983,0.0268646 0.670532,0.0550444 M 12.537322,2.993126 c 0.159336,0.043193 0.436134,0.2446673 0.436134,0.3400058 0,0.095603 -0.125625,0.2151709 -0.181195,0.2014761 C 12.39111,3.4368981 12.052947,3.041058 11.866747,2.8243069 11.541753,2.4463757 11.562295,2.7703192 11.047413,2.6067665 10.91573,2.5646298 10.706881,2.1561456 10.845148,1.9546702 10.983415,1.7531947 11.143015,1.721328 11.270485,1.7747913 c 0.127469,0.052673 0.49987,-0.1698717 0.585463,0.095338 0.0848,0.2652096 0.318938,0.6036365 0.532001,0.6942347 0.213328,0.090071 -0.01054,0.3855679 0.14933,0.4287605 m 0.127732,1.2307124 c 0.06373,0.1272063 -0.383202,-0.1485387 -0.489603,-0.2757447 -0.105873,-0.126943 -0.266,-0.4137492 -0.137741,-0.5409552 0.12747,-0.1269429 0.413486,0.2646836 0.563868,0.3502774 0.297342,0.1698717 -2.69e-4,0.3394798 0.06348,0.4664228 m -2.26337,-1.9265264 c 0.03081,-0.042402 0.09613,0.063733 0.154333,0.169871 0.05821,0.1061369 -0.02212,0.2557294 -0.154333,0.2330798 -0.132211,-0.022122 -0.074,-0.2991842 0,-0.4029508 m 0,-1.0671615 c 0,0 0.124572,0.3039247 0,0.2544119 -0.124573,-0.049511 -0.13063,-0.1767187 0,-0.2544119 m 0.02528,0.9612883 c -0.03556,-0.084541 -0.04372,-0.4319213 0.04266,-0.5372683 0.12747,-0.155386 0.333422,0.1485389 0.194892,0.2686341 C 10.526208,2.0431618 10.46221,2.2765047 10.42692,2.1914376 M 8.8264461,2.5641008 C 8.5949466,2.5475063 8.5899424,2.3473503 8.5578119,2.2412134 c -0.032133,-0.1061369 -0.2238619,0.2014754 -0.4176992,0 -0.1938379,-0.2014755 0.0453,-0.4664221 0.00265,-0.6257592 -0.042662,-0.1590728 0.4572048,0 0.5320005,0 0.074796,0 0.2767984,0.3286821 0.3297349,0.3231511 0.053464,-0.00525 0.3405335,0.259943 0.3405335,0.1538062 0,-0.1058732 0.043718,-0.2865433 0.244931,-0.3076123 0.3086659,-0.031867 0.031866,0.3394797 0.021072,0.4840679 -0.010271,0.1445883 0.2346595,0.3961033 0.3244677,0.5022401 0.090598,0.1061369 -0.2283387,0.1806695 -0.281802,0.1166715 -0.052939,-0.063734 -0.1914677,0 -0.3086659,0.084804 C 9.2283707,3.0573868 8.908907,2.8559112 8.7601045,2.7921763 8.6110395,2.7287087 9.0579728,2.5804294 8.8264754,2.5641008 M 9.65371,0.89066945 c 0.2056892,0.0708456 0.3226238,0.13431675 0.423757,0 0.09771,-0.12957625 0.172242,0.28259255 0.101395,0.39557645 -0.07111,0.1135113 -0.2056884,0.085331 -0.2272843,0 C 9.9305059,1.2019687 9.4480202,0.81982384 9.65371,0.89066945 M 9.9515777,2.1703678 c -0.070583,-0.092178 -0.077694,-0.1980517 0,-0.2757449 0.078219,-0.077694 0.052938,-0.1696081 0.1919933,-0.1977879 0.06847,-0.014223 0.07769,0.091651 0.07769,0.1906772 0,0.099026 0.08533,0.2262322 0,0.3813549 -0.08506,0.1551228 -0.198578,-0.00685 -0.269687,-0.098499 m 0.580724,-1.57203582 c -0.0031,0.0194908 -0.01607,0.0310762 -0.04846,0.0279141 a 0.15722987,0.15722987 0 0 1 -0.06215,-0.0250178 c 0.03714,-0.001295 0.07348,-0.002386 0.110615,-0.002862 M 8.9233944,0.89781425 c 0.163024,0 0.1419549,0.11008685 0.2767984,0.18936045 0.1348436,0.07901 0.063733,-0.40874493 0.1559127,-0.22491477 C 9.448284,1.0458256 9.7219217,1.3005014 9.5902389,1.349751 9.4769913,1.3926785 9.0018775,1.5759832 8.9592124,1.5443789 8.9165439,1.5127779 8.8599232,1.3784578 8.7461488,1.349751 8.6323744,1.3215712 8.5120161,1.0529371 8.433796,1.0600478 8.404035,1.0626978 8.401404,1.0115868 8.420896,0.94364009 A 7.2512736,7.2512736 0 0 1 8.8349077,0.82380787 c 0.015272,0.0416122 0.03845,0.0740063 0.088491,0.0740063 M 12.483852,8.8053963 C 12.313981,8.9807985 12.02138,8.6831939 11.819378,8.6937292 11.617376,8.7042651 11.51598,8.4922537 11.340577,8.5135866 c -0.175928,0.020807 0.04793,-0.2230722 0.292601,-0.095339 0.244141,0.127206 0.989205,0.2436144 0.850674,0.387149 m 3.40533,-6.0400497 c -0.04951,0.063209 -0.105874,0.1074528 -0.159863,0.1540692 -0.159338,0.1380043 -0.457206,0.1274691 -0.49987,0.2228083 -0.04267,0.095338 -0.149066,0.3921526 -0.521467,0.3934693 -0.3724,0.00109 -0.265998,0.5612345 -0.297867,0.7210978 -0.03187,0.1598639 -0.11667,0.3489607 -0.223335,0.2109571 C 14.08038,4.3300074 14.037714,4.3826806 13.708507,3.97973 13.379299,3.5767791 13.505714,3.3542345 13.612377,3.2375631 c 0.106399,-0.1164084 0.149064,-0.3924163 0,-0.3500143 -0.149067,0.042402 -0.234134,-0.053198 -0.202266,-0.1851468 0.03187,-0.1319466 0.191466,-0.2283387 0,-0.36924 C 13.218643,2.1925232 13.324781,1.6892295 13.175979,1.2299182 13.026913,0.77034382 12.824648,1.0956015 12.494913,1.1132468 12.165178,1.1308907 12.111715,0.88332769 12.260779,0.77008009 a 7.3605705,7.3605705 0 0 1 3.628403,1.99526571"
       id="path1-7"
       style="stroke-width:0.263368" />
  </g>
</svg>
