<?xml version="1.0" encoding="UTF-8" standalone="no"?>
<!-- Created with Inkscape (http://www.inkscape.org/) -->

<svg
   width="80"
   height="60"
   viewBox="0 0 21.166666 15.875"
   version="1.1"
   id="svg1"
   inkscape:version="1.3.2 (091e20e, 2023-11-25)"
   sodipodi:docname="globe-east.svg"
   xmlns:inkscape="http://www.inkscape.org/namespaces/inkscape"
   xmlns:sodipodi="http://sodipodi.sourceforge.net/DTD/sodipodi-0.dtd"
   xmlns="http://www.w3.org/2000/svg"
   xmlns:svg="http://www.w3.org/2000/svg">
  <sodipodi:namedview
     id="namedview1"
     pagecolor="#ffffff"
     bordercolor="#000000"
     borderopacity="0.25"
     inkscape:showpageshadow="2"
     inkscape:pageopacity="0.0"
     inkscape:pagecheckerboard="0"
     inkscape:deskcolor="#d1d1d1"
     inkscape:document-units="mm"
     inkscape:zoom="3.1526905"
     inkscape:cx="37.269755"
     inkscape:cy="43.296353"
     inkscape:window-width="2256"
     inkscape:window-height="1242"
     inkscape:window-x="0"
     inkscape:window-y="25"
     inkscape:window-maximized="0"
     inkscape:current-layer="layer1" />
  <defs
     id="defs1" />
  <g
     inkscape:label="Layer 1"
     inkscape:groupmode="layer"
     id="layer1">
    <path
       fill="#943fa5"
       d="M 10.183396,6.3875241 C 10.1503,6.2532876 9.7899549,6.8426552 9.8916246,6.9305573 9.993824,7.0187237 10.31975,6.9398198 10.183396,6.3875241"
       id="path1"
       style="stroke-width:0.264765" />
    <path
       fill="#943fa5"
       d="m 10.732269,0.02468782 c -4.3866291,0 -7.9429548,3.55632518 -7.9429548,7.94295448 0,4.3866287 3.5563257,7.9429537 7.9429548,7.9429537 4.386628,0 7.942954,-3.556325 7.942954,-7.9429537 0,-4.3866293 -3.556326,-7.94295448 -7.942954,-7.94295448 M 10.26337,8.1776011 c 0,0.1466797 -0.2769451,-0.059042 -0.3497551,0.087902 C 9.8408049,8.4121829 9.7973829,7.7523883 9.7682591,7.5318387 9.7386047,7.312084 9.6221088,8.1333855 9.5201739,8.1039962 9.4174452,8.0748729 8.9072427,8.0452185 8.8053079,7.8691499 c -0.1019346,-0.1758043 -0.1456209,-0.4691643 0,-0.4691643 0.1461503,0 0.6854771,-0.5133793 0.8168009,-0.7336641 C 9.7531674,6.4463018 9.8844909,6.3872591 9.8262423,6.1089906 9.7682591,5.8301933 10.124632,5.5145929 10.118278,5.7422912 c -0.01509,0.4988177 0.335457,0.3666994 0.466517,0.7627883 0.131323,0.3958239 -0.218432,0.6748863 -0.233524,0.527942 -0.01456,-0.1466797 -0.189571,-0.087902 -0.5393259,0.1029937 -0.3500194,0.1906309 0.087373,0.058513 0.1747448,0.3079223 0.08764,0.2494085 0.1895721,0.1466798 0.4959051,0.2345813 0.305804,0.088167 0.14615,-0.2491435 0.249938,-0.3518727 0.104583,-0.102729 0.08552,0.4548665 0.222932,0.3079222 0.137149,-0.1466803 0.576924,0.087902 0.576924,0.087902 0.320895,0.1469448 0.772849,0.1991034 0.772849,0.1991034 0.423095,0.1254989 0.612403,0.4906101 0.8168,0.7045401 0.204135,0.21446 -0.02939,0.2703254 -0.349755,0 -0.320894,-0.2697955 -0.335457,-0.170244 -0.43739,-0.040244 -0.10247,0.1294703 -0.320896,-0.1003458 -0.525295,-0.012443 -0.203869,0.088166 0.08764,-0.322484 -0.101929,-0.4691643 -0.189578,-0.1466787 -0.656093,-0.2787968 -0.641267,-0.1170254 0.01456,0.1609776 -0.365111,0.07281 -0.642055,-0.065397 C 10.146873,7.7831033 10.26337,8.0306585 10.26337,8.1776033 m 2.303986,4.0636167 c 0.204399,0.02913 0.269001,-0.15886 0.277474,0 0.01059,0.209693 -0.05851,0.542503 -0.189837,0.498552 -0.131059,-0.04421 -0.291772,-0.528206 -0.08764,-0.498552 m 3.062274,0.21896 c -0.17501,0.07228 -0.248085,0.177128 -0.335457,0.426272 -0.08764,0.249145 -0.335723,0.380997 -0.495906,0.249145 -0.159918,-0.131854 0.08737,-0.366701 0.248085,-0.391853 0.160183,-0.02542 0.218696,-0.312159 0.42283,-0.502524 0.204399,-0.190896 -0.171038,-0.531384 0,-0.674887 0.08764,-0.07334 0.190102,0.263971 0.320895,0.249409 0.131588,-0.0151 0.321161,0.117026 0.160448,0.241731 -0.160448,0.124439 -0.145885,0.330161 -0.320895,0.402707 M 13.451936,1.7165372 c 0.0826,-0.1477393 0.118614,-0.3764964 0.133177,-0.5925444 0.10088,0.042097 0.200163,0.086843 0.298655,0.1331766 -0.28065,0.4604268 -0.574804,0.7146011 -0.431832,0.4593678 M 12.227398,0.83592796 c 0.08737,0.19830944 0.08737,0.96824634 0.08737,1.38604554 0,0.4183291 0.634379,-0.1977795 0.962422,-0.2197548 0.327779,-0.021976 -1.049794,0.8141525 -1.049794,1.2981435 0,0.4839904 -0.568979,0.4839904 -0.918999,0.7259859 -0.35002,0.2419955 -0.349755,0.3079217 -0.349755,0 0,-0.3079218 0.524765,-0.5279415 0.831363,-0.6380839 0.305803,-0.1098779 0.196456,-0.9460061 0.293889,-1.1880016 0.09716,-0.2417304 0.036,-1.60712405 0.143502,-1.36433464 M 11.240617,8.8088013 c 0.204134,-0.04395 0.466517,0.058248 0.423095,0.1758036 -0.04394,0.1172915 -0.117025,0.2051936 0,0.2637063 0.116233,0.058778 0.364317,0.3521378 0.420448,0.2202847 0.05534,-0.1321176 -0.02065,-0.8056805 0.148003,-0.6597946 0.102469,0.088166 0.292036,0.7037456 0.714867,1.0852723 0.422829,0.3812614 0.524764,0.8949064 0.451688,1.0709754 -0.07281,0.176069 -0.262382,0.410651 -0.291506,0.747961 -0.02939,0.337311 -0.452219,0.381262 -0.627229,0.322749 -0.17501,-0.05851 -0.480812,0.05877 -0.480812,-0.0879 0,-0.146945 -0.02939,-0.337311 -0.233524,-0.343666 -0.204134,-0.0063 -0.335457,-0.125763 -0.451954,-0.346049 -0.116761,-0.220019 -0.802238,-0.02913 -0.904173,0.08817 -0.101929,0.117027 -0.4665161,0.07307 -0.7143364,0.220019 -0.2480846,0.146681 -0.3794082,-0.161506 -0.3063328,-0.454867 0.07281,-0.293359 -0.2623823,-0.601281 -0.2623823,-0.983072 0,-0.381262 0.8017084,-0.3079222 0.8602214,-0.4249481 0.05878,-0.117556 0.1164971,-0.1763337 0.2623831,-0.3373112 0.14615,-0.1615064 0.277209,-0.3230135 0.48346,-0.2157834 0.206253,0.1074945 0.144033,-0.033627 0.222932,-0.1948671 0.0789,-0.1620365 0.08049,-0.1029937 0.285152,-0.1466798 M 10.732269,0.55422135 c 0.328044,0 0.650527,0.0235631 0.967452,0.0648674 -0.01615,0.11437861 0.04131,0.19380817 0.155682,0.17289131 0.240406,-0.0439505 0.240406,0.35213774 0.153033,0.85810394 -0.08764,0.5062307 -0.437391,1.0119325 -0.74346,1.0341727 -0.306333,0.02224 -0.437921,0.4622796 -0.371995,0.6600591 0.06566,0.1980449 -0.174744,0.6600601 -0.328308,0.6600601 -0.15277,0 -0.130794,-0.3738486 -0.15277,-0.7921777 -0.02197,-0.4177991 -0.35002,-0.2200197 -0.6560878,0 -0.3063339,0.2200202 0.4588378,0.2200202 0.3277798,0.3079217 -0.1313241,0.088167 -0.1093481,0.2862116 0,0.5721575 0.109612,0.2859466 -0.3497555,0.8803444 -0.546741,1.0781238 -0.1967205,0.1980445 -0.5901615,0 -1.0061072,0.2639713 C 8.11533,5.6983433 8.7714183,6.292476 8.7274672,6.4685453 8.6840476,6.6448789 8.3337613,6.6006628 8.0057171,6.336427 7.6776734,6.0724564 7.8307073,6.6665891 8.0711145,6.9967517 8.3120505,7.3266488 8.3120505,7.6785215 8.4428447,7.9210465 8.5744328,8.163307 9.3618443,8.1627775 9.7115992,8.3388461 10.061354,8.5149148 11.0018,8.3827961 11.0018,8.3827961 11.417481,8.3608181 10.345712,8.9327105 9.9520059,8.7349311 9.5585647,8.5366219 8.0711145,8.1847491 7.6774084,7.7007587 7.283703,7.2167678 6.7586733,5.9186243 7.0650067,6.3364234 7.3708106,6.754488 8.0054526,7.4367879 7.917815,7.2607188 7.8304429,7.0846501 7.524639,6.6226349 7.5460848,6.2924724 7.56806,5.9625754 7.3930509,5.852433 7.2622566,5.9625754 7.1306685,6.0724527 7.1746196,5.5884623 7.0213207,5.3244909 6.8682862,5.0605202 6.3652323,5.6546535 6.0154774,5.7491742 5.6651935,5.8436955 5.665723,6.6006591 5.4687374,6.7327768 5.2717524,6.8643654 4.9439727,5.8307222 4.9654191,5.368442 4.9873943,4.9064268 4.7030367,5.5222709 4.4626302,5.0605202 4.3739337,4.8897468 4.2105732,4.8097877 4.0398003,4.7758976 5.2328316,2.2796917 7.7814611,0.5542177 10.732269,0.5542177"
       id="path2"
       style="stroke-width:0.264765" />
  </g>
</svg>
