<?xml version="1.0" encoding="UTF-8" standalone="no"?>
<!-- Created with Inkscape (http://www.inkscape.org/) -->

<svg
   width="80"
   height="60"
   viewBox="0 0 21.166666 15.875"
   version="1.1"
   id="svg1"
   inkscape:version="1.3.2 (091e20e, 2023-11-25)"
   sodipodi:docname="globe-centre.svg"
   xmlns:inkscape="http://www.inkscape.org/namespaces/inkscape"
   xmlns:sodipodi="http://sodipodi.sourceforge.net/DTD/sodipodi-0.dtd"
   xmlns="http://www.w3.org/2000/svg"
   xmlns:svg="http://www.w3.org/2000/svg">
  <sodipodi:namedview
     id="namedview1"
     pagecolor="#ffffff"
     bordercolor="#000000"
     borderopacity="0.25"
     inkscape:showpageshadow="2"
     inkscape:pageopacity="0.0"
     inkscape:pagecheckerboard="0"
     inkscape:deskcolor="#d1d1d1"
     inkscape:document-units="mm"
     inkscape:zoom="3.1526905"
     inkscape:cx="37.269755"
     inkscape:cy="43.296353"
     inkscape:window-width="2256"
     inkscape:window-height="1242"
     inkscape:window-x="119"
     inkscape:window-y="190"
     inkscape:window-maximized="0"
     inkscape:current-layer="layer1" />
  <defs
     id="defs1" />
  <g
     inkscape:label="Layer 1"
     inkscape:groupmode="layer"
     id="layer1">
    <path
       fill="#943fa5"
       d="m 10.944655,0.08151223 c -4.3402815,0 -7.8590327,3.51875097 -7.8590327,7.85903277 l 2.64e-4,0.013884 -2.64e-4,0.013884 c 0,4.325088 3.4991037,7.831264 7.8158077,7.831264 l 0.01677,-5.36e-4 0.02646,5.36e-4 c 4.340283,0 7.859034,-3.518751 7.859034,-7.8590325 0,-4.3402818 -3.518751,-7.85903307 -7.859034,-7.85903307 m 7.335098,7.85903327 c 0,0.6271507 -0.07911,1.235702 -0.226863,1.8164845 -0.06837,-0.047154 -0.249132,0.1477497 -0.293666,-0.1105505 -0.0558,-0.3206483 -0.417315,-0.543321 -0.611956,-0.39007 -0.194644,0.1532513 -0.7508,0.5988583 -0.778308,0.8775923 -0.02803,0.278471 -0.264586,0.612742 -0.375398,0.376447 C 15.881962,10.27363 15.54874,9.5351422 15.562361,9.3402383 15.575981,9.1453344 15.408849,9.4099223 15.159455,9.0198519 14.909014,8.6297818 14.478077,8.9637907 14.130444,8.7688868 13.782814,8.573721 13.39353,8.3091332 13.198626,8.2258274 c -0.194118,-0.08383 0.347631,0.7798782 0.417315,0.668542 0.06994,-0.1113363 0.347631,0.083568 0.431198,0.083568 0.08357,0 0.305716,0.1949039 0.166875,0.3761856 -0.138843,0.1812814 -1.376118,0.934177 -1.501338,0.738225 -0.125745,-0.1959519 -0.861875,-1.7135312 -0.987358,-1.6205327 -0.125221,0.092999 0.778831,1.6760697 0.93182,1.7735217 0.152466,0.09771 0.611695,0.01415 0.833844,-0.08331 0.222673,-0.09745 -0.458705,1.086643 -0.750277,1.226009 -0.291832,0.139105 -0.528126,0.57109 -0.40343,0.765994 0.125221,0.194904 0.139105,0.933391 -0.124696,1.031105 -0.264588,0.09719 -0.361778,0.250441 -0.278473,0.431723 0.08304,0.180758 -0.194379,0.486998 -0.3196,0.682164 -0.125483,0.194905 -0.611695,0.598857 -0.65361,0.710456 -0.04139,0.111599 -0.639201,0.08357 -0.87602,0.08357 -0.2360327,0 -0.05554,-0.292618 -0.08357,-0.543058 -0.027244,-0.250966 -0.2357704,-0.487785 -0.2357704,-0.613005 0,-0.125483 -0.069946,-0.418101 -0.1668738,-0.557206 C 9.5014738,13.24015 9.4731816,12.975563 9.5706338,12.822574 9.6683478,12.669061 9.737507,12.223716 9.5433898,12.028549 9.3484853,11.833647 9.1258126,11.499114 9.2790639,11.234527 9.432053,10.96994 9.1121904,10.99797 8.848127,10.872226 8.5838014,10.746743 8.041528,10.914141 7.7635805,10.956056 7.4853705,10.997708 7.2076849,10.886372 7.1241169,10.746743 7.0408111,10.607639 6.8600535,10.259483 6.6748423,10.175654 6.4901549,10.092348 6.5959901,9.7300464 6.7070644,9.5909414 6.8186625,9.4518367 6.5959901,9.1869873 6.7070644,9.075127 6.8186625,8.9637907 6.887822,8.5600985 7.1102328,8.4718153 7.3329052,8.383794 7.2909904,8.3232795 7.2978015,8.114229 7.304876,7.9051788 7.5479808,7.9051788 7.5893718,7.7938426 7.6312866,7.6822442 7.756245,7.6267072 8.0072103,7.6267072 c 0.2501793,0 0.6737813,-0.1464399 0.8754963,-0.1951658 0.2017153,-0.048726 0.5493464,-0.1184095 0.5213157,0.076756 -0.027768,0.1949042 -0.020694,0.4175766 0.1110746,0.4175766 0.1322936,0 0.3130512,0.076757 0.5215781,0.2066927 0.208526,0.1296743 0.215337,0.023578 0.243368,-0.1228628 0.02803,-0.1464399 0.3196,-0.090641 0.621387,0.048726 0.301787,0.1393669 0.713338,0.041653 0.844846,0.02803 0.132294,-0.014408 0.188093,-0.4110274 0.153251,-0.543321 -0.0351,-0.1322939 -0.243368,0.06261 -0.3754,-0.020959 -0.132031,-0.083306 -0.313051,0.020959 -0.444821,-0.097714 -0.132293,-0.1181476 -0.153251,-0.3968811 0,-0.4036922 0.152727,-0.00707 0.229484,-0.055799 0.319601,-0.1600624 0.09064,-0.1045251 0.431199,-0.1671354 0.563231,-0.062872 0.131769,0.1045251 0.326936,0.1742084 0.444559,0.055799 0.118148,-0.1181476 -0.235771,-0.3478933 -0.31279,-0.4107656 -0.07649,-0.06261 -0.01388,-0.2645875 -0.09012,-0.2645875 -0.07676,0 -0.139367,0.03458 -0.09745,0.1322939 0.04165,0.097452 -0.222411,0.2713987 -0.264588,0.1742085 -0.04139,-0.097714 -0.110812,-0.285545 -0.215076,-0.285545 -0.104,0 -0.243105,0.4736378 -0.250179,0.5501325 -0.0071,0.076757 -0.18783,0.2019772 -0.333484,0.2019772 -0.145654,0 -0.145654,0.1673973 -0.06942,0.2441539 0.07649,0.076494 0.0207,0.3829967 -0.118148,0.4005484 C 10.516338,7.613868 10.467612,7.5646195 10.446916,7.4459481 10.42622,7.3278005 10.287116,7.3416846 10.280043,7.0977929 10.272968,6.8539009 10.11998,6.7357533 10.02279,6.6241552 9.9256002,6.5125568 9.675159,6.1853592 9.5779691,6.3317992 9.4807789,6.4782391 9.9256002,6.7915525 10.043486,6.8748583 10.162157,6.958426 10.1412,7.1394458 10.07859,7.1813606 10.015979,7.2232754 9.8978317,7.5646195 9.8284103,7.5921261 9.7584648,7.6198943 9.6921872,7.4883867 9.6921872,7.4883867 9.587924,7.4467338 9.837841,7.3212513 9.8797558,7.258641 9.9211468,7.1960307 9.4420079,6.7572348 9.3555586,6.6317523 9.269109,6.5062695 8.8997345,6.7360152 8.7331229,6.6527109 8.5662497,6.5694051 8.3158085,6.9660243 8.2953749,7.19577 8.2741544,7.4257776 8.0030189,7.488126 7.7528396,7.488126 c -0.2499174,0 -0.4170525,-0.1878309 -0.3332229,-0.375924 0.083306,-0.1880925 -0.041915,-0.5014062 0.1042632,-0.5223636 0.1459161,-0.020697 0.5624448,0 0.6460125,-0.2297457 C 8.2531979,6.130347 7.7735351,5.9212967 7.9616279,5.8796438 8.148935,5.837729 8.441291,5.5456349 8.6498174,5.3782376 8.8578197,5.2111022 8.8787771,5.0023139 9.0663461,4.9876438 9.2544389,4.9732359 9.0249551,4.6258661 9.1918286,4.5216029 9.358964,4.4170778 9.400355,4.8977888 9.5255753,4.8977888 c 0.1252209,0 0.374876,-0.041915 0.5836647,0.06261 0.208788,0.1045254 0.271136,-0.1045251 0.354704,-0.3764475 0.08331,-0.2713986 0.291832,-0.4178385 0.708623,-0.6266269 0.417052,-0.2090505 -0.479139,0.06261 -0.646275,-0.1464399 -0.166873,-0.2090505 0.06261,-0.6688038 0.167136,-0.993382 0.104263,-0.3248401 -0.333747,0.3245782 -0.563231,0.6591112 -0.2297457,0.3342708 0.06261,0.4804488 0.04139,0.7101945 C 10.150891,4.4168159 9.7760168,4.6882145 9.7760168,4.6882145 9.6091433,4.7091731 9.6298388,4.3749011 9.546533,4.2287231 9.4629653,4.082545 9.3167873,4.1451553 9.0873035,4.3122908 8.8578197,4.4794262 8.8371242,3.9154096 8.7747758,3.685402 8.7126893,3.4559182 9.1501757,3.1630381 9.3558202,3.0069054 9.5612031,2.8502484 9.9004513,2.0976153 10.276113,1.5129032 c 0.375662,-0.58497393 0.917673,-0.2926179 1.063589,-0.06261 0.14644,0.2294838 0.521054,0.083306 0.876021,0.5014063 0.354704,0.4178385 -0.08357,0.6056694 -0.47914,0.4359143 -0.396881,-0.1697551 0.08304,0.4207201 0.312004,0.5878555 0.229484,0.1668736 0.354705,-0.3761856 0.438272,-0.5014062 0.08331,-0.1254825 0.395834,-0.06261 0.625056,-0.397143 0.229745,-0.3342708 0.7508,-0.2713986 1.048395,-0.2347232 0.297856,0.036937 0.223721,-0.1831153 0.03615,-0.3630872 -0.138843,-0.1330797 0.145129,-0.016503 0.4794,0.1467018 2.156784,1.2765688 3.603893,3.6261579 3.603893,6.3147332 M 7.8120448,5.4445161 c -0.06916,-0.071517 0.069945,-0.3531323 0.1322936,-0.4367 0.062872,-0.083568 -0.1739465,-0.055799 -0.1595383,0.062872 0.013884,0.1181476 -0.090641,0.2994293 -0.2365568,0.3481552 -0.1459161,0.048726 -0.3122658,0.03458 -0.2292219,-0.097714 0.083044,-0.1322936 0.00681,-0.2507031 -0.055799,-0.376186 C 7.2008738,4.819461 7.6105917,4.7429666 7.6944213,4.6664719 7.7777271,4.5899772 7.5626515,4.5409894 7.5692007,4.4228421 c 0.00707,-0.1186717 0.055799,-0.2229349 0.1385809,-0.236819 0.083568,-0.013884 0.1616341,-0.067325 0.2365568,-0.06261 0.2297457,0.014146 0.1595383,0.536248 0.2433682,0.7036454 0.083306,0.1668735 0.3198626,0.3691126 0.2989052,0.5150287 C 8.4656532,5.4885268 8.4211199,5.5720945 8.2508407,5.5301797 8.0797758,5.4882649 7.8060194,5.7460413 7.7012324,5.6973151 7.5967073,5.6483273 7.8819903,5.5160334 7.8120448,5.4445161 M 6.3141131,2.5154547 C 6.5229014,2.6197176 6.6892511,2.4305771 6.834905,2.3899719 7.0075416,2.3422939 7.1060417,2.9542506 6.9394301,2.9332932 6.7725569,2.9123346 6.5849876,3.2675641 6.3439774,3.2466067 6.1027051,3.2256481 6.209588,3.0587758 5.9384513,2.8080726 5.8802943,2.7541073 5.8564553,2.7053811 5.8543598,2.6626803 5.9122545,2.6068814 5.9698874,2.5508203 6.029878,2.4971169 6.1236625,2.4722297 6.2349987,2.4758964 6.3141131,2.5154535 M 12.837635,13.031101 c 0.194642,-0.04165 0.15718,-0.412075 0.333746,-0.431723 0.3754,-0.04165 0.01388,1.002813 -0.124958,1.295431 -0.139105,0.292618 -0.195167,0.278472 -0.32746,0.09745 -0.132818,-0.180758 -0.08986,-0.473638 0,-0.612743 0.08959,-0.139628 -0.07623,-0.306502 0.118672,-0.348417"
       id="path1"
       style="stroke-width:0.261969" />
  </g>
</svg>
