<?xml version="1.0" encoding="UTF-8" standalone="no"?>
<!-- Created with Inkscape (http://www.inkscape.org/) -->

<svg
   width="80"
   height="60"
   viewBox="0 0 21.166666 15.875"
   version="1.1"
   id="svg1"
   inkscape:version="1.3.2 (091e20e, 2023-11-25)"
   sodipodi:docname="globe.svg"
   xmlns:inkscape="http://www.inkscape.org/namespaces/inkscape"
   xmlns:sodipodi="http://sodipodi.sourceforge.net/DTD/sodipodi-0.dtd"
   xmlns="http://www.w3.org/2000/svg"
   xmlns:svg="http://www.w3.org/2000/svg">
  <sodipodi:namedview
     id="namedview1"
     pagecolor="#ffffff"
     bordercolor="#000000"
     borderopacity="0.25"
     inkscape:showpageshadow="2"
     inkscape:pageopacity="0.0"
     inkscape:pagecheckerboard="0"
     inkscape:deskcolor="#d1d1d1"
     inkscape:document-units="mm"
     inkscape:zoom="3.1526905"
     inkscape:cx="37.269755"
     inkscape:cy="43.296353"
     inkscape:window-width="2256"
     inkscape:window-height="1242"
     inkscape:window-x="141"
     inkscape:window-y="31"
     inkscape:window-maximized="0"
     inkscape:current-layer="layer1" />
  <defs
     id="defs1" />
  <g
     inkscape:label="Layer 1"
     inkscape:groupmode="layer"
     id="layer1">
    <path
       fill="#943fa5"
       d="m 11.135873,0.05588691 c -4.4026179,0 -7.9849186,3.58230069 -7.9849186,7.98491879 0,4.4031503 3.5823007,7.9849183 7.9849186,7.9849183 4.402885,0 7.984919,-3.581768 7.984919,-7.9849183 0,-4.4026181 -3.581768,-7.98491879 -7.984919,-7.98491879 M 16.471662,12.353726 a 7.9883785,7.9883785 0 0 0 -1.009561,-0.777997 7.9929034,7.9929034 0 0 0 0.801687,-2.890274 h 1.70611 a 6.834558,6.834558 0 0 1 -1.498236,3.668271 M 4.3023797,8.685455 H 5.9784142 A 8.003816,8.003816 0 0 0 6.7872861,11.590368 8.0487978,8.0487978 0 0 0 5.8000843,12.353726 6.8297666,6.8297666 0 0 1 4.3023797,8.685455 M 5.8000843,3.7281512 A 7.9181112,7.9181112 0 0 0 6.7872861,4.4912434 7.9902415,7.9902415 0 0 0 5.9664365,7.5646386 H 4.2882729 A 6.8324284,6.8324284 0 0 1 5.8000843,3.7281512 M 10.575598,2.0678203 v 2.56795 A 6.7797281,6.7797281 0 0 1 8.3486044,4.0701718 6.8736838,6.8736838 0 0 1 10.575598,2.0678203 m 0,3.6914279 V 7.5646386 H 7.0893825 A 6.8108692,6.8108692 0 0 1 7.7699637,5.0392748 7.8960197,7.8960197 0 0 0 10.575598,5.7592482 m 0,2.9262068 v 1.636908 A 7.8962858,7.8962858 0 0 0 7.7611802,11.047128 6.8475998,6.8475998 0 0 1 7.1029566,8.685455 h 3.4726414 m 0,2.760918 v 2.573273 A 6.78931,6.78931 0 0 1 8.3366267,12.017295 6.7680166,6.7680166 0 0 1 10.575598,11.446373 m 1.12055,2.549851 v -2.549851 c 0.770545,0.06122 1.512344,0.249662 2.203039,0.554686 a 6.8840646,6.8840646 0 0 1 -2.203039,1.995165 m 0,-3.673861 V 8.685455 h 3.442564 a 6.8095385,6.8095385 0 0 1 -0.662215,2.345437 7.9029398,7.9029398 0 0 0 -2.780349,-0.708529 m 0,-2.7577244 V 5.7592482 a 7.8957536,7.8957536 0 0 0 2.781679,-0.708528 6.8132645,6.8132645 0 0 1 0.674726,2.5139184 h -3.456405 m 0,-2.9288683 V 2.0848551 a 6.8835319,6.8835319 0 0 1 2.204636,1.9951648 6.7738725,6.7738725 0 0 1 -2.204636,0.5557504 M 14.471706,2.974641 A 8.0062113,8.0062113 0 0 0 12.630383,1.3409269 6.8483982,6.8483982 0 0 1 15.69739,2.9166174 6.8071428,6.8071428 0 0 1 14.894641,3.537578 7.631985,7.631985 0 0 0 14.471706,2.974641 M 7.7702299,2.9749001 A 7.8576919,7.8576919 0 0 0 7.356345,3.5239964 6.8712885,6.8712885 0 0 1 6.5740892,2.9168765 6.8526569,6.8526569 0 0 1 9.5963806,1.3510341 7.9905077,7.9905077 0 0 0 7.7702299,2.9749001 M 7.3566112,12.557867 c 0.1085947,0.158101 0.2230455,0.312476 0.3436174,0.462593 a 7.9976943,7.9976943 0 0 0 1.8974827,1.710904 6.849995,6.849995 0 0 1 -3.0233564,-1.566109 6.8369532,6.8369532 0 0 1 0.7822563,-0.607386 m 7.1260068,0.535788 a 8.0171244,8.0171244 0 0 0 0.41282,-0.549362 6.8457368,6.8457368 0 0 1 0.802218,0.62096 6.8526569,6.8526569 0 0 1 -3.067006,1.575691 8.0054129,8.0054129 0 0 0 1.851968,-1.647289 m 1.793147,-5.5290237 a 7.9761347,7.9761347 0 0 0 -0.813664,-3.0587561 7.9614961,7.9614961 0 0 0 1.009561,-0.7777308 6.8297666,6.8297666 0 0 1 1.511811,3.8364869 h -1.707708"
       id="path1-6"
       style="stroke-width:0.266164" />
  </g>
</svg>
