<?xml version="1.0" encoding="UTF-8" standalone="no"?>
<!-- Created with Inkscape (http://www.inkscape.org/) -->

<svg
   width="80"
   height="60"
   viewBox="0 0 21.166666 15.875"
   version="1.1"
   id="svg1"
   inkscape:version="1.3.2 (091e20e, 2023-11-25)"
   sodipodi:docname="lsri.svg"
   xmlns:inkscape="http://www.inkscape.org/namespaces/inkscape"
   xmlns:sodipodi="http://sodipodi.sourceforge.net/DTD/sodipodi-0.dtd"
   xmlns="http://www.w3.org/2000/svg"
   xmlns:svg="http://www.w3.org/2000/svg">
  <sodipodi:namedview
     id="namedview1"
     pagecolor="#ffffff"
     bordercolor="#000000"
     borderopacity="0.25"
     inkscape:showpageshadow="2"
     inkscape:pageopacity="0.0"
     inkscape:pagecheckerboard="0"
     inkscape:deskcolor="#d1d1d1"
     inkscape:document-units="mm"
     inkscape:zoom="8.7305274"
     inkscape:cx="42.208218"
     inkscape:cy="33.33132"
     inkscape:window-width="2192"
     inkscape:window-height="1067"
     inkscape:window-x="35"
     inkscape:window-y="297"
     inkscape:window-maximized="0"
     inkscape:current-layer="layer1" />
  <defs
     id="defs1">
    <clipPath
       clipPathUnits="userSpaceOnUse"
       id="clipPath171">
      <path
         d="M 0,1080 H 1920 V 0 H 0 Z"
         transform="translate(-1494.58,-804.13572)"
         id="path171" />
    </clipPath>
    <clipPath
       clipPathUnits="userSpaceOnUse"
       id="clipPath173">
      <path
         d="M 0,1080 H 1920 V 0 H 0 Z"
         transform="translate(-1514.5692,-782.11452)"
         id="path173" />
    </clipPath>
    <clipPath
       clipPathUnits="userSpaceOnUse"
       id="clipPath175">
      <path
         d="M 0,1080 H 1920 V 0 H 0 Z"
         transform="translate(-1505.1514,-775.01252)"
         id="path175" />
    </clipPath>
    <clipPath
       clipPathUnits="userSpaceOnUse"
       id="clipPath177">
      <path
         d="M 0,1080 H 1920 V 0 H 0 Z"
         transform="translate(-1529.1765,-743.73672)"
         id="path177" />
    </clipPath>
    <clipPath
       clipPathUnits="userSpaceOnUse"
       id="clipPath179">
      <path
         d="M 0,1080 H 1920 V 0 H 0 Z"
         transform="translate(-1527.4063,-751.27782)"
         id="path179" />
    </clipPath>
    <clipPath
       clipPathUnits="userSpaceOnUse"
       id="clipPath181">
      <path
         d="M 0,1080 H 1920 V 0 H 0 Z"
         transform="translate(-1525.1122,-760.23502)"
         id="path181" />
    </clipPath>
    <clipPath
       clipPathUnits="userSpaceOnUse"
       id="clipPath183">
      <path
         d="M 0,1080 H 1920 V 0 H 0 Z"
         transform="translate(-1519.0936,-769.19212)"
         id="path183" />
    </clipPath>
    <clipPath
       clipPathUnits="userSpaceOnUse"
       id="clipPath185">
      <path
         d="M 0,1080 H 1920 V 0 H 0 Z"
         transform="translate(-1503.0063,-786.21422)"
         id="path185" />
    </clipPath>
    <clipPath
       clipPathUnits="userSpaceOnUse"
       id="clipPath187">
      <path
         d="M 0,1080 H 1920 V 0 H 0 Z"
         transform="translate(-1497.0298,-795.17852)"
         id="path187" />
    </clipPath>
    <clipPath
       clipPathUnits="userSpaceOnUse"
       id="clipPath189">
      <path
         d="M 0,1080 H 1920 V 0 H 0 Z"
         transform="translate(-1541.1003,-801.74942)"
         id="path189" />
    </clipPath>
    <clipPath
       clipPathUnits="userSpaceOnUse"
       id="clipPath191">
      <path
         d="M 0,1080 H 1920 V 0 H 0 Z"
         transform="translate(-1485.1626,-780.07532)"
         id="path191" />
    </clipPath>
    <clipPath
       clipPathUnits="userSpaceOnUse"
       id="clipPath193">
      <path
         d="M 0,1080 H 1920 V 0 H 0 Z"
         transform="translate(-1533.4248,-776.08892)"
         id="path193" />
    </clipPath>
  </defs>
  <g
     inkscape:label="Layer 1"
     inkscape:groupmode="layer"
     id="layer1">
    <path
       id="path170"
       d="m 0,0 h 27.65 c 0.135,0.899 0.234,1.848 0.312,2.832 H -0.29 C -0.22,1.855 -0.128,0.906 -0.007,0 Z"
       style="fill:#943fa5;fill-opacity:1;fill-rule:nonzero;stroke:none"
       transform="matrix(0.21700503,0,0,-0.21700503,7.1124781,2.2942332)"
       clip-path="url(#clipPath171)" />
    <path
       id="path172"
       d="m 0,0 c 0.751,-0.559 1.515,-1.126 2.28,-1.699 7.385,6.061 13.744,13.913 13.744,30.652 0,0.779 -0.63,1.416 -1.416,1.416 -0.786,0 -1.416,-0.637 -1.416,-1.416 C 13.192,13.014 7.215,5.898 -0.064,0.05 -0.042,0.035 -0.021,0.021 0,0"
       style="fill:#943fa5;fill-opacity:1;fill-rule:nonzero;stroke:none"
       transform="matrix(0.21700503,0,0,-0.21700503,11.450223,7.0729445)"
       clip-path="url(#clipPath173)" />
    <path
       id="path174"
       d="m 0,0 c -7.35,-5.962 -13.737,-13.581 -13.737,-29.86 0,-0.786 0.638,-1.416 1.416,-1.416 0.779,0 1.417,0.638 1.417,1.416 0,15.458 5.997,22.347 13.241,28.104 C 1.565,-1.182 0.779,-0.602 0,-0.007 Z"
       style="fill:#943fa5;fill-opacity:1;fill-rule:nonzero;stroke:none"
       transform="matrix(0.21700503,0,0,-0.21700503,9.4065251,8.6141134)"
       clip-path="url(#clipPath175)" />
    <path
       id="path176"
       d="m 0,0 c -0.779,0 -1.416,0.637 -1.416,1.416 0,18.354 -8.455,24.627 -17.412,31.269 -9.311,6.904 -18.934,14.048 -18.934,34.639 0,0.779 0.638,1.416 1.416,1.416 0.779,0 1.417,-0.637 1.417,-1.416 0,-19.161 8.638,-25.576 17.794,-32.359 C -8.015,28.196 1.423,21.193 1.416,1.416 1.416,0.63 0.786,0 0,0"
       style="fill:#943fa5;fill-opacity:1;fill-rule:nonzero;stroke:none"
       transform="matrix(0.21700503,0,0,-0.21700503,14.620083,15.40112)"
       clip-path="url(#clipPath177)" />
    <path
       id="path178"
       d="m 0,0 h -27.813 c -0.121,-0.899 -0.22,-1.841 -0.283,-2.832 H 0.255 C 0.198,-1.848 0.106,-0.906 -0.007,0 Z"
       style="fill:#943fa5;fill-opacity:1;fill-rule:nonzero;stroke:none"
       transform="matrix(0.21700503,0,0,-0.21700503,14.235952,13.764663)"
       clip-path="url(#clipPath179)" />
    <path
       id="path180"
       d="m 0,0 h -22.843 c -0.453,-0.885 -0.863,-1.827 -1.232,-2.832 H 1.013 C 0.708,-1.841 0.375,-0.892 0,0"
       style="fill:#943fa5;fill-opacity:1;fill-rule:nonzero;stroke:none"
       transform="matrix(0.21700503,0,0,-0.21700503,13.738119,11.820905)"
       clip-path="url(#clipPath181)" />
    <path
       id="path182"
       d="m 0,0 h -9.162 c -1.105,-0.914 -2.153,-1.841 -3.13,-2.832 H 2.464 C 1.692,-1.827 0.871,-0.885 0.007,0 Z"
       style="fill:#943fa5;fill-opacity:1;fill-rule:nonzero;stroke:none"
       transform="matrix(0.21700503,0,0,-0.21700503,12.432051,9.8771686)"
       clip-path="url(#clipPath183)" />
    <path
       id="path184"
       d="m 0,0 h 9.042 c 1.091,0.906 2.124,1.841 3.087,2.832 H -2.429 C -1.664,1.827 -0.857,0.885 0,0"
       style="fill:#943fa5;fill-opacity:1;fill-rule:nonzero;stroke:none"
       transform="matrix(0.21700503,0,0,-0.21700503,8.9410166,6.1832878)"
       clip-path="url(#clipPath185)" />
    <path
       id="path186"
       d="m 0,0 h 22.567 c 0.453,0.885 0.863,1.827 1.232,2.832 H -1.027 C -0.715,1.841 -0.375,0.892 0,0"
       style="fill:#943fa5;fill-opacity:1;fill-rule:nonzero;stroke:none"
       transform="matrix(0.21700503,0,0,-0.21700503,7.6440985,4.2379901)"
       clip-path="url(#clipPath187)" />
    <path
       id="path188"
       d="m 0,0 c -2.06,0 -3.746,-1.678 -3.746,-3.746 0,-2.067 1.678,-3.745 3.746,-3.745 2.068,0 3.746,1.678 3.746,3.745 C 3.746,-1.678 2.068,0 0,0 m 0,-10.317 c -3.625,0 -6.578,2.953 -6.578,6.578 0,3.626 2.953,6.578 6.578,6.578 3.625,0 6.578,-2.952 6.578,-6.578 0,-3.625 -2.953,-6.578 -6.578,-6.578"
       style="fill:#943fa5;fill-opacity:1;fill-rule:nonzero;stroke:none"
       transform="matrix(0.21700503,0,0,-0.21700503,17.207606,2.8120717)"
       clip-path="url(#clipPath189)" />
    <path
       id="path190"
       d="m 0,0 c -2.06,0 -3.746,-1.678 -3.746,-3.746 0,-2.067 1.678,-3.746 3.746,-3.746 2.068,0 3.746,1.679 3.746,3.746 C 3.746,-1.678 2.068,0 0,0 m 0,-10.317 c -3.625,0 -6.578,2.953 -6.578,6.578 0,3.626 2.946,6.578 6.578,6.578 3.632,0 6.578,-2.952 6.578,-6.578 0,-3.625 -2.953,-6.578 -6.578,-6.578"
       style="fill:#943fa5;fill-opacity:1;fill-rule:nonzero;stroke:none"
       transform="matrix(0.21700503,0,0,-0.21700503,5.0688445,7.5154597)"
       clip-path="url(#clipPath191)" />
    <path
       id="path192"
       d="m 0,0 c -1.423,0 -2.584,-1.161 -2.584,-2.584 0,-1.424 1.161,-2.585 2.584,-2.585 1.423,0 2.584,1.161 2.584,2.585 C 2.584,-1.161 1.423,0 0,0 m 0,-8.008 c -2.988,0 -5.417,2.428 -5.417,5.416 0,2.988 2.429,5.417 5.417,5.417 2.988,0 5.417,-2.429 5.417,-5.417 C 5.417,-5.58 2.988,-8.008 0,-8.008"
       style="fill:#943fa5;fill-opacity:1;fill-rule:nonzero;stroke:none"
       transform="matrix(0.21700503,0,0,-0.21700503,15.542003,8.3805292)"
       clip-path="url(#clipPath193)" />
  </g>
</svg>
