<?xml version="1.0" encoding="UTF-8" standalone="no"?>
<!-- Created with Inkscape (http://www.inkscape.org/) -->

<svg
   width="80"
   height="60"
   viewBox="0 0 21.166666 15.875"
   version="1.1"
   id="svg1"
   inkscape:version="1.3.2 (091e20e, 2023-11-25)"
   sodipodi:docname="panosc.svg"
   xmlns:inkscape="http://www.inkscape.org/namespaces/inkscape"
   xmlns:sodipodi="http://sodipodi.sourceforge.net/DTD/sodipodi-0.dtd"
   xmlns="http://www.w3.org/2000/svg"
   xmlns:svg="http://www.w3.org/2000/svg">
  <sodipodi:namedview
     id="namedview1"
     pagecolor="#ffffff"
     bordercolor="#000000"
     borderopacity="0.25"
     inkscape:showpageshadow="2"
     inkscape:pageopacity="0.0"
     inkscape:pagecheckerboard="0"
     inkscape:deskcolor="#d1d1d1"
     inkscape:document-units="mm"
     inkscape:zoom="3.1526905"
     inkscape:cx="37.269755"
     inkscape:cy="43.296353"
     inkscape:window-width="2256"
     inkscape:window-height="1242"
     inkscape:window-x="141"
     inkscape:window-y="31"
     inkscape:window-maximized="0"
     inkscape:current-layer="layer1" />
  <defs
     id="defs1">
    <clipPath
       clipPathUnits="userSpaceOnUse"
       id="clipPath163">
      <path
         d="M 0,1080 H 1920 V 0 H 0 Z"
         transform="translate(-1523.1343,-709.72812)"
         id="path163" />
    </clipPath>
    <clipPath
       clipPathUnits="userSpaceOnUse"
       id="clipPath165">
      <path
         d="M 0,1080 H 1920 V 0 H 0 Z"
         transform="translate(-1514.7981,-692.29331)"
         id="path165" />
    </clipPath>
    <clipPath
       clipPathUnits="userSpaceOnUse"
       id="clipPath167">
      <path
         d="M 0,1080 H 1920 V 0 H 0 Z"
         transform="translate(-1520.9226,-681.05981)"
         id="path167" />
    </clipPath>
    <clipPath
       clipPathUnits="userSpaceOnUse"
       id="clipPath169">
      <path
         d="M 0,1080 H 1920 V 0 H 0 Z"
         transform="translate(-1482.5112,-687.06491)"
         id="path169" />
    </clipPath>
  </defs>
  <g
     inkscape:label="Layer 1"
     inkscape:groupmode="layer"
     id="layer1">
    <path
       id="path162"
       d="M 0,0 C -0.119,0 -0.238,0.014 -0.357,0.049 -2.94,0.728 -5.62,1.078 -8.322,1.078 H -8.42 c -0.77,0 -1.4,0.63 -1.4,1.4 0,0.77 0.63,1.4 1.4,1.4 h 0.098 c 2.94,0 5.865,-0.378 8.679,-1.12 C 1.106,2.562 1.554,1.792 1.351,1.05 1.183,0.42 0.616,0.007 0,0.007 Z m -24.672,-3.325 c -0.483,0 -0.952,0.252 -1.211,0.693 -0.392,0.665 -0.161,1.526 0.504,1.911 2.562,1.491 5.312,2.639 8.175,3.416 0.742,0.196 1.512,-0.238 1.715,-0.987 0.203,-0.749 -0.238,-1.519 -0.987,-1.715 -2.624,-0.707 -5.144,-1.764 -7.496,-3.136 -0.224,-0.126 -0.462,-0.189 -0.7,-0.189 z m 39.279,-5.053 c -0.357,0 -0.714,0.133 -0.987,0.406 -1.931,1.918 -4.108,3.577 -6.46,4.927 -0.672,0.385 -0.903,1.239 -0.518,1.911 0.385,0.672 1.239,0.903 1.911,0.518 2.569,-1.477 4.934,-3.282 7.041,-5.375 0.546,-0.546 0.553,-1.428 0,-1.981 -0.273,-0.273 -0.63,-0.413 -0.994,-0.413 z m -51.163,-6.887 c -0.238,0 -0.476,0.063 -0.7,0.189 -0.672,0.385 -0.903,1.239 -0.518,1.911 1.477,2.561 3.282,4.934 5.382,7.034 0.546,0.546 1.435,0.553 1.981,0 0.546,-0.546 0.553,-1.435 0,-1.981 -1.925,-1.932 -3.584,-4.101 -4.935,-6.46 -0.258,-0.448 -0.727,-0.7 -1.217,-0.7 z m 59.639,-7.664 c -0.616,0 -1.183,0.413 -1.351,1.036 -0.714,2.624 -1.77,5.144 -3.142,7.496 -0.392,0.665 -0.161,1.526 0.504,1.918 0.665,0.392 1.526,0.168 1.917,-0.504 1.498,-2.562 2.646,-5.313 3.423,-8.168 0.203,-0.749 -0.238,-1.519 -0.987,-1.715 -0.126,-0.035 -0.245,-0.049 -0.364,-0.049 z m 0.035,-16.966 c -0.119,0 -0.238,0.014 -0.364,0.049 -0.749,0.203 -1.19,0.966 -0.994,1.715 0.7,2.617 1.05,5.326 1.05,8.056 v 0.119 c 0,0.77 0.616,1.407 1.386,1.414 h 0.014 c 0.77,0 1.393,-0.616 1.4,-1.386 v -0.14 c 0,-2.975 -0.385,-5.928 -1.148,-8.777 -0.168,-0.623 -0.735,-1.043 -1.351,-1.043 z m -59.611,-7.902 c -0.483,0 -0.952,0.252 -1.211,0.7 -1.491,2.569 -2.639,5.319 -3.409,8.175 -0.203,0.749 0.238,1.512 0.987,1.715 0.749,0.203 1.512,-0.238 1.715,-0.987 0.707,-2.625 1.757,-5.145 3.121,-7.496 0.385,-0.672 0.161,-1.526 -0.51,-1.911 -0.224,-0.126 -0.462,-0.189 -0.7,-0.189 z m 51.184,-6.677 c -0.357,0 -0.714,0.14 -0.987,0.406 -0.546,0.546 -0.546,1.435 0,1.981 1.925,1.924 3.591,4.094 4.949,6.446 0.385,0.672 1.239,0.903 1.91,0.511 0.672,-0.385 0.896,-1.246 0.511,-1.911 -1.483,-2.562 -3.296,-4.927 -5.396,-7.027 -0.273,-0.273 -0.63,-0.413 -0.994,-0.413 z m -39.265,-5.207 c -0.238,0 -0.476,0.062 -0.7,0.189 -2.561,1.476 -4.927,3.289 -7.027,5.382 -0.546,0.546 -0.546,1.435 0,1.981 0.546,0.546 1.435,0.546 1.981,0 1.932,-1.925 4.101,-3.584 6.453,-4.942 0.672,-0.385 0.896,-1.246 0.511,-1.911 -0.259,-0.448 -0.728,-0.699 -1.211,-0.699 z m 24.693,-3.227 c -0.616,0 -1.183,0.413 -1.351,1.036 -0.203,0.749 0.245,1.512 0.987,1.715 2.625,0.699 5.144,1.749 7.503,3.114 0.672,0.385 1.526,0.161 1.911,-0.511 0.385,-0.672 0.161,-1.526 -0.511,-1.91 -2.569,-1.491 -5.319,-2.632 -8.182,-3.402 -0.119,-0.035 -0.245,-0.049 -0.364,-0.049 z m -8.42,-1.106 h -0.035 c -2.967,0 -5.907,0.385 -8.749,1.141 -0.749,0.196 -1.19,0.966 -0.994,1.715 0.196,0.749 0.966,1.197 1.715,0.994 2.604,-0.693 5.305,-1.043 8.028,-1.043 0.77,0 1.414,-0.63 1.414,-1.4 0,-0.77 -0.609,-1.4 -1.386,-1.4 z"
       style="fill:#943fa5;fill-opacity:1;fill-rule:nonzero;stroke:none"
       transform="matrix(0.23407485,0,0,-0.23407485,12.671419,0.99943465)"
       clip-path="url(#clipPath163)" />
    <path
       id="path164"
       d="m 0,0 c -6.964,0 -12.633,-5.669 -12.633,-12.633 0,-6.965 5.669,-12.634 12.633,-12.634 6.964,0 12.633,5.669 12.633,12.634 C 12.633,-5.669 6.964,0 0,0 m 0,-28.067 c -8.511,0 -15.433,6.923 -15.433,15.434 0,8.511 6.922,15.433 15.433,15.433 8.511,0 15.433,-6.922 15.433,-15.433 0,-8.511 -6.922,-15.434 -15.433,-15.434"
       style="fill:#943fa5;fill-opacity:1;fill-rule:nonzero;stroke:none"
       transform="matrix(0.23407485,0,0,-0.23407485,10.720131,5.0804824)"
       clip-path="url(#clipPath165)" />
    <path
       id="path166"
       d="m 0,0 h -4.724 v 4.724 c 0,0.77 -0.63,1.4 -1.4,1.4 -0.77,0 -1.4,-0.63 -1.4,-1.4 V 0 h -4.724 c -0.77,0 -1.4,-0.63 -1.4,-1.4 0,-0.77 0.63,-1.4 1.4,-1.4 h 4.724 v -4.724 c 0,-0.77 0.63,-1.4 1.4,-1.4 0.77,0 1.4,0.63 1.4,1.4 V -2.8 H 0 c 0.77,0 1.4,0.63 1.4,1.4 C 1.4,-0.63 0.77,0 0,0"
       style="fill:#943fa5;fill-opacity:1;fill-rule:nonzero;stroke:none"
       transform="matrix(0.23407485,0,0,-0.23407485,12.153705,7.7099623)"
       clip-path="url(#clipPath167)" />
    <path
       id="path168"
       d="m 0,0 c -1.96,0 -3.548,-1.596 -3.548,-3.549 0,-1.952 1.595,-3.548 3.548,-3.548 1.953,0 3.549,1.596 3.549,3.548 C 3.549,-1.596 1.96,0 0,0 m 0,-9.897 c -3.5,0 -6.348,2.849 -6.348,6.348 0,3.5 2.848,6.349 6.348,6.349 3.5,0 6.348,-2.849 6.348,-6.349 C 6.348,-7.048 3.5,-9.897 0,-9.897"
       style="fill:#943fa5;fill-opacity:1;fill-rule:nonzero;stroke:none"
       transform="matrix(0.23407485,0,0,-0.23407485,3.1625795,6.3043199)"
       clip-path="url(#clipPath169)" />
  </g>
</svg>
