<?xml version="1.0" encoding="UTF-8" standalone="no"?>
<!-- Created with Inkscape (http://www.inkscape.org/) -->

<svg
   width="450"
   height="200"
   viewBox="0 0 119.0625 52.916666"
   version="1.1"
   id="svg1"
   inkscape:version="1.3.2 (091e20e, 2023-11-25)"
   sodipodi:docname="ri-450x200.svg"
   xmlns:inkscape="http://www.inkscape.org/namespaces/inkscape"
   xmlns:sodipodi="http://sodipodi.sourceforge.net/DTD/sodipodi-0.dtd"
   xmlns="http://www.w3.org/2000/svg"
   xmlns:svg="http://www.w3.org/2000/svg">
  <sodipodi:namedview
     id="namedview1"
     pagecolor="#ffffff"
     bordercolor="#000000"
     borderopacity="0.25"
     inkscape:showpageshadow="2"
     inkscape:pageopacity="0.0"
     inkscape:pagecheckerboard="0"
     inkscape:deskcolor="#d1d1d1"
     inkscape:document-units="mm"
     inkscape:zoom="2.01"
     inkscape:cx="279.10448"
     inkscape:cy="100"
     inkscape:window-width="1968"
     inkscape:window-height="1017"
     inkscape:window-x="0"
     inkscape:window-y="25"
     inkscape:window-maximized="0"
     inkscape:current-layer="layer1" />
  <defs
     id="defs1">
    <clipPath
       clipPathUnits="userSpaceOnUse"
       id="clipPath163">
      <path
         d="M 0,1080 H 1920 V 0 H 0 Z"
         transform="translate(-1523.1343,-709.72812)"
         id="path163" />
    </clipPath>
    <clipPath
       clipPathUnits="userSpaceOnUse"
       id="clipPath165">
      <path
         d="M 0,1080 H 1920 V 0 H 0 Z"
         transform="translate(-1514.7981,-692.29331)"
         id="path165" />
    </clipPath>
    <clipPath
       clipPathUnits="userSpaceOnUse"
       id="clipPath167">
      <path
         d="M 0,1080 H 1920 V 0 H 0 Z"
         transform="translate(-1520.9226,-681.05981)"
         id="path167" />
    </clipPath>
    <clipPath
       clipPathUnits="userSpaceOnUse"
       id="clipPath169">
      <path
         d="M 0,1080 H 1920 V 0 H 0 Z"
         transform="translate(-1482.5112,-687.06491)"
         id="path169" />
    </clipPath>
    <clipPath
       clipPathUnits="userSpaceOnUse"
       id="clipPath171">
      <path
         d="M 0,1080 H 1920 V 0 H 0 Z"
         transform="translate(-1494.58,-804.13572)"
         id="path171" />
    </clipPath>
    <clipPath
       clipPathUnits="userSpaceOnUse"
       id="clipPath173">
      <path
         d="M 0,1080 H 1920 V 0 H 0 Z"
         transform="translate(-1514.5692,-782.11452)"
         id="path173" />
    </clipPath>
    <clipPath
       clipPathUnits="userSpaceOnUse"
       id="clipPath175">
      <path
         d="M 0,1080 H 1920 V 0 H 0 Z"
         transform="translate(-1505.1514,-775.01252)"
         id="path175" />
    </clipPath>
    <clipPath
       clipPathUnits="userSpaceOnUse"
       id="clipPath177">
      <path
         d="M 0,1080 H 1920 V 0 H 0 Z"
         transform="translate(-1529.1765,-743.73672)"
         id="path177" />
    </clipPath>
    <clipPath
       clipPathUnits="userSpaceOnUse"
       id="clipPath179">
      <path
         d="M 0,1080 H 1920 V 0 H 0 Z"
         transform="translate(-1527.4063,-751.27782)"
         id="path179" />
    </clipPath>
    <clipPath
       clipPathUnits="userSpaceOnUse"
       id="clipPath181">
      <path
         d="M 0,1080 H 1920 V 0 H 0 Z"
         transform="translate(-1525.1122,-760.23502)"
         id="path181" />
    </clipPath>
    <clipPath
       clipPathUnits="userSpaceOnUse"
       id="clipPath183">
      <path
         d="M 0,1080 H 1920 V 0 H 0 Z"
         transform="translate(-1519.0936,-769.19212)"
         id="path183" />
    </clipPath>
    <clipPath
       clipPathUnits="userSpaceOnUse"
       id="clipPath185">
      <path
         d="M 0,1080 H 1920 V 0 H 0 Z"
         transform="translate(-1503.0063,-786.21422)"
         id="path185" />
    </clipPath>
    <clipPath
       clipPathUnits="userSpaceOnUse"
       id="clipPath187">
      <path
         d="M 0,1080 H 1920 V 0 H 0 Z"
         transform="translate(-1497.0298,-795.17852)"
         id="path187" />
    </clipPath>
    <clipPath
       clipPathUnits="userSpaceOnUse"
       id="clipPath189">
      <path
         d="M 0,1080 H 1920 V 0 H 0 Z"
         transform="translate(-1541.1003,-801.74942)"
         id="path189" />
    </clipPath>
    <clipPath
       clipPathUnits="userSpaceOnUse"
       id="clipPath191">
      <path
         d="M 0,1080 H 1920 V 0 H 0 Z"
         transform="translate(-1485.1626,-780.07532)"
         id="path191" />
    </clipPath>
    <clipPath
       clipPathUnits="userSpaceOnUse"
       id="clipPath193">
      <path
         d="M 0,1080 H 1920 V 0 H 0 Z"
         transform="translate(-1533.4248,-776.08892)"
         id="path193" />
    </clipPath>
  </defs>
  <g
     inkscape:label="Layer 1"
     inkscape:groupmode="layer"
     id="layer1">
    <path
       id="path158"
       d="m 32.473569,40.1813 v -4.668441 h 1.739654 c 0.31747,0 0.599154,0.0578 0.844136,0.172498 0.244066,0.115606 0.434916,0.282602 0.572545,0.502812 0.139466,0.218374 0.2092,0.483543 0.2092,0.796424 0,0.311047 -0.07158,0.576216 -0.212869,0.796425 -0.139466,0.218374 -0.330315,0.385366 -0.572545,0.502811 -0.24223,0.117451 -0.522997,0.176169 -0.840467,0.176169 H 33.325045 V 40.1813 Z m 0.851476,-2.473686 h 0.902859 c 0.154147,0 0.287191,-0.03029 0.400048,-0.09176 0.111939,-0.06055 0.199106,-0.144971 0.260581,-0.253241 0.0633,-0.110106 0.09542,-0.235808 0.09542,-0.378027 0,-0.144054 -0.03211,-0.268838 -0.09542,-0.374356 -0.06148,-0.107356 -0.148642,-0.191765 -0.260581,-0.253241 -0.112856,-0.06055 -0.245901,-0.09176 -0.400048,-0.09176 h -0.902859 z m 3.97203,2.547091 c -0.240396,0 -0.44776,-0.03946 -0.623928,-0.11744 -0.174332,-0.07799 -0.308293,-0.191765 -0.403716,-0.341325 -0.09543,-0.14864 -0.143137,-0.321139 -0.143137,-0.517492 0,-0.188095 0.04129,-0.356005 0.124785,-0.502811 0.08258,-0.148641 0.211035,-0.273427 0.385367,-0.374357 0.176168,-0.100009 0.397295,-0.170661 0.664299,-0.212869 l 1.115728,-0.179837 V 38.6325 l -0.957912,0.165157 c -0.161486,0.02936 -0.282602,0.08258 -0.363345,0.157818 -0.07891,0.0734 -0.11744,0.171579 -0.11744,0.293612 0,0.115606 0.04404,0.208282 0.132126,0.278932 0.08991,0.06882 0.202776,0.10276 0.337655,0.10276 0.170662,0 0.321139,-0.03671 0.45143,-0.110106 0.132125,-0.0734 0.23489,-0.174333 0.308293,-0.304624 0.0734,-0.129373 0.110106,-0.271591 0.110106,-0.425738 v -0.877168 c 0,-0.146806 -0.0578,-0.268838 -0.172498,-0.367015 -0.115606,-0.09726 -0.267003,-0.146807 -0.455099,-0.146807 -0.174333,0 -0.329398,0.04771 -0.466111,0.143136 -0.134878,0.09359 -0.233973,0.21654 -0.297283,0.370686 l -0.671646,-0.326644 c 0.0679,-0.178002 0.174332,-0.333984 0.319304,-0.466109 0.144053,-0.132126 0.313799,-0.234891 0.510153,-0.308295 0.195436,-0.07523 0.408304,-0.113773 0.638607,-0.113773 0.278932,0 0.524833,0.05139 0.737702,0.154147 0.212869,0.10276 0.378943,0.244983 0.499141,0.425738 0.119285,0.181673 0.179838,0.392707 0.179838,0.634938 v 2.268157 h -0.778073 v -0.583555 l 0.176167,-0.01098 c -0.08808,0.146804 -0.193601,0.269754 -0.315633,0.367013 -0.120202,0.09818 -0.256912,0.172497 -0.411058,0.22388 -0.154147,0.05139 -0.325727,0.07708 -0.513822,0.07708 z m 2.668205,-0.0734 v -4.668443 h 0.664299 l 2.569111,3.46096 -0.344995,0.06607 v -3.527026 h 0.851476 v 4.668441 h -0.671639 l -2.52874,-3.48298 0.311964,-0.06973 v 3.552713 z m 6.938434,0.0734 c -0.34316,0 -0.662463,-0.06055 -0.957911,-0.179838 -0.296365,-0.122032 -0.556029,-0.29086 -0.778073,-0.506482 -0.22021,-0.217457 -0.392707,-0.47345 -0.517493,-0.767063 -0.12295,-0.295448 -0.183508,-0.614753 -0.183508,-0.957911 0,-0.344995 0.05964,-0.662465 0.179839,-0.954242 0.122032,-0.293613 0.293612,-0.548688 0.513821,-0.767064 0.222045,-0.217456 0.481709,-0.385366 0.778074,-0.502812 0.2982,-0.119285 0.620257,-0.179836 0.965251,-0.179836 0.346831,0 0.668886,0.06148 0.965253,0.183507 0.295447,0.120202 0.554193,0.288107 0.774403,0.502812 0.222045,0.215622 0.394542,0.46978 0.517492,0.763393 0.124786,0.291777 0.187178,0.609247 0.187178,0.954242 0,0.343158 -0.06239,0.662463 -0.187178,0.957911 -0.124786,0.293613 -0.299118,0.549606 -0.521163,0.767063 -0.220209,0.215622 -0.478955,0.38445 -0.774403,0.506482 -0.293614,0.119285 -0.614751,0.179838 -0.961582,0.179838 z m 0,-0.774403 c 0.229385,0 0.440419,-0.04037 0.631267,-0.121116 0.192684,-0.08258 0.361512,-0.196354 0.506483,-0.341325 0.144053,-0.146806 0.254159,-0.32022 0.330315,-0.521162 0.078,-0.200024 0.117439,-0.418398 0.117439,-0.653288 0,-0.232138 -0.03946,-0.44776 -0.117439,-0.645949 -0.07615,-0.198189 -0.186262,-0.371604 -0.330315,-0.521162 -0.144971,-0.148642 -0.313799,-0.262417 -0.506483,-0.341326 -0.190848,-0.08075 -0.401882,-0.121113 -0.631267,-0.121113 -0.225714,0 -0.434914,0.04037 -0.627596,0.121113 -0.190849,0.0789 -0.358758,0.192684 -0.502812,0.341326 -0.144971,0.149558 -0.255994,0.322973 -0.333984,0.521162 -0.0789,0.198189 -0.11744,0.413811 -0.11744,0.645949 0,0.23489 0.03854,0.453264 0.11744,0.653288 0.078,0.200942 0.189013,0.374356 0.333984,0.521162 0.144054,0.144971 0.311963,0.258746 0.502812,0.341325 0.192682,0.08075 0.401882,0.121116 0.627596,0.121116 z m 4.868466,0.774403 c -0.296365,0 -0.571627,-0.05414 -0.825785,-0.161487 -0.252324,-0.107355 -0.468863,-0.257829 -0.649619,-0.451429 -0.181672,-0.195437 -0.313798,-0.422987 -0.396377,-0.682651 l 0.70467,-0.308292 c 0.11469,0.269756 0.278933,0.479873 0.491802,0.631267 0.212869,0.152311 0.452346,0.22755 0.719352,0.22755 0.14864,0 0.278932,-0.02294 0.389035,-0.06973 0.111939,-0.04864 0.198189,-0.114689 0.256912,-0.198188 0.06055,-0.08258 0.09176,-0.183508 0.09176,-0.300952 0,-0.136714 -0.04037,-0.250489 -0.121115,-0.341325 -0.08075,-0.08993 -0.203693,-0.159653 -0.367016,-0.209199 l -0.895523,-0.289944 c -0.362428,-0.111939 -0.636772,-0.280767 -0.822116,-0.506483 -0.183508,-0.224797 -0.275262,-0.489965 -0.275262,-0.796424 0,-0.266086 0.06607,-0.500976 0.198189,-0.704671 0.132126,-0.205528 0.315634,-0.36518 0.550524,-0.480791 0.236725,-0.114689 0.507399,-0.172496 0.811104,-0.172496 0.280769,0 0.537679,0.04954 0.770734,0.146806 0.23489,0.09818 0.436749,0.233972 0.605577,0.407387 0.168827,0.174332 0.29453,0.377109 0.378026,0.609246 l -0.701001,0.315635 c -0.09084,-0.23489 -0.229385,-0.415647 -0.414727,-0.543184 -0.183508,-0.12662 -0.396377,-0.190849 -0.638609,-0.190849 -0.142218,0 -0.267004,0.02478 -0.374354,0.0734 -0.108272,0.04679 -0.192685,0.112856 -0.253242,0.198189 -0.06148,0.08625 -0.09176,0.187179 -0.09176,0.304623 0,0.130291 0.04129,0.244066 0.124786,0.341325 0.08258,0.09818 0.210116,0.174332 0.381697,0.227551 l 0.858816,0.271591 c 0.371603,0.120202 0.650535,0.286272 0.836796,0.499141 0.185344,0.212869 0.278932,0.476204 0.278932,0.789085 0,0.269756 -0.06973,0.506481 -0.209199,0.71201 -0.137631,0.203695 -0.326644,0.363347 -0.568874,0.480791 -0.242231,0.11469 -0.523916,0.172497 -0.844137,0.172497 z m 4.577606,0 c -0.333067,0 -0.641361,-0.06055 -0.92488,-0.179838 -0.281684,-0.122032 -0.527586,-0.29086 -0.737703,-0.506482 -0.211034,-0.217457 -0.374355,-0.471615 -0.491801,-0.763393 -0.11744,-0.293613 -0.176167,-0.613834 -0.176167,-0.961581 0,-0.344995 0.05689,-0.664299 0.172496,-0.957912 0.11469,-0.295448 0.277098,-0.551441 0.488131,-0.767063 0.212871,-0.214705 0.460606,-0.381697 0.745044,-0.499143 0.283519,-0.119285 0.591813,-0.179836 0.92488,-0.179836 0.334901,0 0.634937,0.05689 0.899188,0.168827 0.266087,0.112856 0.491802,0.262415 0.67531,0.447759 0.183507,0.186261 0.313797,0.389037 0.392707,0.609246 l -0.763394,0.359676 c -0.08808,-0.23489 -0.236725,-0.427573 -0.444088,-0.579885 -0.208282,-0.154147 -0.461524,-0.231219 -0.759723,-0.231219 -0.291779,0 -0.549607,0.06973 -0.774404,0.209198 -0.222962,0.137631 -0.395459,0.326644 -0.517492,0.568874 -0.122951,0.242232 -0.183508,0.526668 -0.183508,0.851478 0,0.325726 0.06055,0.611081 0.183508,0.855146 0.122033,0.244983 0.29453,0.436749 0.517492,0.576215 0.224797,0.13763 0.482625,0.20553 0.774404,0.20553 0.298199,0 0.551441,-0.07525 0.759723,-0.22755 0.207363,-0.154147 0.356005,-0.346831 0.444088,-0.579886 l 0.763394,0.356006 c -0.07891,0.220209 -0.2092,0.423903 -0.392707,0.609246 -0.183508,0.18626 -0.409223,0.33582 -0.67531,0.447759 -0.264251,0.111939 -0.564287,0.168828 -0.899188,0.168828 z m -23.876217,7.443082 v -4.668442 h 1.739654 c 0.31747,0 0.599154,0.0578 0.844136,0.172497 0.244066,0.115606 0.434916,0.282602 0.572545,0.502811 0.139466,0.218375 0.2092,0.483545 0.2092,0.796426 0,0.311045 -0.07158,0.576214 -0.212869,0.796424 -0.139466,0.218374 -0.330315,0.385366 -0.572545,0.502812 -0.24223,0.11744 -0.522997,0.176167 -0.840467,0.176167 h -0.888178 v 1.721305 z M 33.325045,45.2241 h 0.902859 c 0.154147,0 0.287191,-0.03028 0.400048,-0.09176 0.111939,-0.06055 0.199106,-0.144972 0.260581,-0.253241 0.0633,-0.110106 0.09542,-0.235808 0.09542,-0.378026 0,-0.144054 -0.03211,-0.26884 -0.09542,-0.374356 -0.06148,-0.107355 -0.148642,-0.191767 -0.260581,-0.253242 -0.112856,-0.06055 -0.245901,-0.09176 -0.400048,-0.09176 h -0.902859 z m 3.137986,2.473687 v -4.741846 h 0.822116 v 2.003906 l -0.113772,-0.117439 c 0.078,-0.20553 0.207364,-0.360593 0.389036,-0.46611 0.183508,-0.107356 0.396379,-0.161487 0.638609,-0.161487 0.24957,0 0.470697,0.05505 0.664299,0.165156 0.195436,0.108272 0.34683,0.258746 0.455099,0.45143 0.110105,0.193602 0.165157,0.418398 0.165157,0.675311 v 2.191084 H 38.66146 v -2.000238 c 0,-0.14864 -0.02936,-0.277096 -0.08808,-0.385366 -0.05873,-0.110106 -0.139466,-0.194519 -0.242231,-0.253241 -0.100926,-0.06055 -0.219292,-0.09176 -0.356005,-0.09176 -0.134878,0 -0.255077,0.03119 -0.359676,0.09176 -0.10276,0.05872 -0.183508,0.143136 -0.24223,0.253241 -0.05872,0.108272 -0.08808,0.236726 -0.08808,0.385366 v 2.000238 z m 5.380453,0.0734 c -0.333068,0 -0.636773,-0.07708 -0.9102,-0.23122 -0.274345,-0.154145 -0.491801,-0.364262 -0.653288,-0.631266 -0.159652,-0.266086 -0.23856,-0.57071 -0.23856,-0.91387 0,-0.342242 0.0789,-0.646865 0.23856,-0.913869 0.161487,-0.26884 0.378026,-0.480791 0.649618,-0.634937 0.271592,-0.154147 0.576215,-0.23122 0.91387,-0.23122 0.334902,0 0.638608,0.07708 0.910199,0.23122 0.271592,0.154146 0.486295,0.365181 0.645947,0.631267 0.161487,0.264251 0.242232,0.57071 0.242232,0.917539 0,0.34316 -0.08258,0.647784 -0.245901,0.91387 -0.161487,0.267004 -0.378026,0.477121 -0.649619,0.631267 -0.271591,0.154147 -0.572545,0.23122 -0.902858,0.231219 z m 0,-0.748713 c 0.183508,0 0.344994,-0.04404 0.48446,-0.132126 0.141302,-0.08809 0.253242,-0.210116 0.333984,-0.367015 0.08075,-0.155982 0.121116,-0.33215 0.121116,-0.528504 0,-0.200023 -0.04036,-0.376191 -0.121116,-0.528502 -0.08075,-0.154145 -0.192682,-0.27526 -0.333984,-0.363344 -0.139466,-0.08993 -0.300952,-0.135796 -0.48446,-0.135796 -0.189013,0 -0.354171,0.04589 -0.495472,0.135796 -0.142219,0.08808 -0.253241,0.209199 -0.333984,0.363346 -0.08075,0.152312 -0.121116,0.32848 -0.121116,0.528502 0,0.196355 0.04037,0.372521 0.121116,0.528503 0.08074,0.156899 0.191765,0.278932 0.333984,0.367016 0.141301,0.08809 0.306459,0.132125 0.495472,0.132124 z m 3.907801,0.712012 c -0.38445,0 -0.681732,-0.104606 -0.891849,-0.315635 -0.211034,-0.210114 -0.315633,-0.507397 -0.315633,-0.891847 v -1.504765 h -0.587226 v -0.734031 h 0.06239 c 0.166075,0 0.29453,-0.04221 0.385366,-0.128456 0.09268,-0.08809 0.139467,-0.216538 0.139467,-0.385366 v -0.260582 h 0.822115 v 0.774404 h 0.781743 v 0.734031 h -0.781743 v 1.460724 c 0,0.112856 0.01926,0.209199 0.05872,0.289942 0.03854,0.0789 0.100926,0.138549 0.187179,0.179837 0.08533,0.04221 0.195435,0.06239 0.330314,0.06239 0.02936,0 0.0633,-8.88e-4 0.10276,-0.0036 0.03854,-0.0046 0.07708,-0.0092 0.113773,-0.01468 v 0.701002 c -0.05689,0.0074 -0.122951,0.01468 -0.198191,0.02201 -0.07615,0.0092 -0.145889,0.01468 -0.209198,0.01468 z m 2.669122,0.03669 c -0.333066,0 -0.636771,-0.07708 -0.910199,-0.23122 -0.274344,-0.154147 -0.491801,-0.364263 -0.653287,-0.631267 -0.159653,-0.266087 -0.238561,-0.57071 -0.238561,-0.91387 0,-0.342242 0.0789,-0.646865 0.238561,-0.913869 0.161486,-0.26884 0.378026,-0.480791 0.649617,-0.634938 0.271591,-0.154147 0.576216,-0.231221 0.913869,-0.231221 0.334902,0 0.638608,0.07708 0.9102,0.231221 0.271591,0.154147 0.486296,0.365181 0.645948,0.631267 0.161487,0.264251 0.242231,0.57071 0.242231,0.91754 0,0.34316 -0.08258,0.647783 -0.245902,0.91387 -0.161486,0.267004 -0.378026,0.47712 -0.649617,0.631267 -0.271593,0.154147 -0.572545,0.23122 -0.90286,0.23122 z m 0,-0.748713 c 0.183508,0 0.344995,-0.04404 0.484462,-0.132126 0.141301,-0.08808 0.25324,-0.210116 0.333984,-0.367016 0.08075,-0.155981 0.121116,-0.332148 0.121116,-0.528502 0,-0.200023 -0.04037,-0.376191 -0.121116,-0.528503 -0.08075,-0.154147 -0.192683,-0.275262 -0.333984,-0.363345 -0.139467,-0.08993 -0.300954,-0.135798 -0.484462,-0.135798 -0.189012,0 -0.35417,0.04589 -0.495471,0.135798 -0.142218,0.08808 -0.25324,0.209198 -0.333984,0.363345 -0.08075,0.152312 -0.121115,0.32848 -0.121115,0.528503 0,0.196354 0.04037,0.372521 0.121115,0.528502 0.08075,0.1569 0.191766,0.278933 0.333984,0.367016 0.141301,0.08808 0.306459,0.132126 0.495471,0.132126 z m 2.417718,0.67531 v -3.40957 h 0.770733 v 0.671638 l -0.0624,-0.11744 c 0.078,-0.205529 0.207363,-0.360592 0.389035,-0.46611 0.183508,-0.107355 0.396379,-0.161488 0.638609,-0.161488 0.24957,0 0.470697,0.05505 0.664299,0.165158 0.195436,0.108272 0.34683,0.258746 0.455099,0.45143 0.110105,0.1936 0.165157,0.418398 0.165157,0.675309 v 2.191085 h -0.822115 v -2.000237 c 0,-0.148641 -0.02936,-0.277097 -0.08808,-0.385367 -0.05873,-0.110105 -0.139465,-0.194518 -0.24223,-0.253241 -0.100926,-0.06055 -0.219293,-0.09176 -0.356005,-0.09176 -0.13488,0 -0.255077,0.03119 -0.359677,0.09176 -0.10276,0.05873 -0.183507,0.143137 -0.24223,0.253241 -0.05872,0.108273 -0.08808,0.236726 -0.08808,0.385367 v 2.000237 z m 5.863996,0.0734 c -0.240395,0 -0.447759,-0.03946 -0.623927,-0.11744 -0.174332,-0.07799 -0.308294,-0.191765 -0.403717,-0.341324 -0.09543,-0.148641 -0.143137,-0.321138 -0.143137,-0.517492 0,-0.188096 0.04129,-0.356006 0.124785,-0.502812 0.08258,-0.148642 0.211035,-0.273427 0.385367,-0.374357 0.176169,-0.100009 0.397295,-0.170662 0.6643,-0.212869 l 1.115727,-0.179837 v 0.623926 l -0.957911,0.165158 c -0.161487,0.02936 -0.282602,0.08258 -0.363347,0.157817 -0.0789,0.0734 -0.117439,0.171579 -0.117439,0.293612 0,0.115606 0.04404,0.208282 0.132125,0.278933 0.08993,0.06882 0.202777,0.102759 0.337655,0.102759 0.170662,0 0.321139,-0.03671 0.451429,-0.110106 0.132126,-0.0734 0.234891,-0.174332 0.308294,-0.304621 0.0734,-0.129374 0.110106,-0.271593 0.110106,-0.42574 v -0.877167 c 0,-0.146807 -0.0578,-0.26884 -0.172496,-0.367016 -0.115606,-0.09726 -0.267005,-0.146807 -0.4551,-0.146807 -0.174332,0 -0.329397,0.04771 -0.46611,0.143136 -0.134878,0.09359 -0.233974,0.21654 -0.297283,0.370687 l -0.671639,-0.326644 c 0.0679,-0.178003 0.174332,-0.333986 0.319303,-0.466111 0.144054,-0.132126 0.313799,-0.234889 0.510153,-0.308293 0.195435,-0.07525 0.408305,-0.113772 0.638607,-0.113772 0.278933,0 0.524832,0.05138 0.737703,0.154146 0.212869,0.10276 0.378943,0.244983 0.499141,0.425738 0.119285,0.181674 0.179837,0.392707 0.179837,0.634938 v 2.268158 h -0.778072 v -0.583555 l 0.176166,-0.01098 c -0.08808,0.146807 -0.1936,0.269757 -0.315632,0.367016 -0.120202,0.09818 -0.256913,0.172497 -0.411058,0.22388 -0.154147,0.05139 -0.325727,0.07708 -0.513823,0.07708 z m 2.598472,-0.0734 v -3.40957 h 0.770734 v 0.671638 l -0.0624,-0.11744 c 0.078,-0.205529 0.207365,-0.360592 0.389038,-0.46611 0.183507,-0.107355 0.396377,-0.161488 0.638607,-0.161488 0.24957,0 0.470698,0.05505 0.664299,0.165158 0.195435,0.108272 0.346829,0.258746 0.455099,0.45143 0.110106,0.1936 0.165157,0.418398 0.165157,0.675309 v 2.191085 h -0.822115 v -2.000237 c 0,-0.148641 -0.02936,-0.277097 -0.08809,-0.385367 -0.05872,-0.110105 -0.139466,-0.194518 -0.24223,-0.253241 -0.100927,-0.06055 -0.219293,-0.09176 -0.356006,-0.09176 -0.134878,0 -0.255075,0.03119 -0.359676,0.09176 -0.102759,0.05873 -0.183507,0.143137 -0.24223,0.253241 -0.05872,0.108273 -0.08808,0.236726 -0.08808,0.385367 v 2.000237 z m 5.299709,0.0734 c -0.330316,0 -0.625763,-0.078 -0.884509,-0.23489 -0.259664,-0.155982 -0.464274,-0.368852 -0.612915,-0.638608 -0.14956,-0.271592 -0.22388,-0.572545 -0.22388,-0.90286 0,-0.334901 0.07433,-0.635854 0.22388,-0.902858 0.148641,-0.266086 0.354169,-0.478955 0.616586,-0.638609 0.261498,-0.158734 0.552358,-0.238559 0.873497,-0.238559 0.258748,0 0.489968,0.05139 0.693661,0.154147 0.202776,0.102759 0.363344,0.245899 0.48079,0.429408 l -0.128454,0.168827 v -2.011247 h 0.822115 v 4.741846 h -0.778075 v -0.656959 l 0.08808,0.161487 c -0.11744,0.183508 -0.280766,0.32481 -0.48813,0.422068 -0.208282,0.09726 -0.435831,0.146807 -0.682651,0.146807 z m 0.08808,-0.748713 c 0.188096,0 0.353252,-0.04404 0.495471,-0.132125 0.1413,-0.08808 0.253243,-0.2092 0.333985,-0.363347 0.08075,-0.154145 0.121116,-0.331231 0.121116,-0.532173 0,-0.198188 -0.04037,-0.375274 -0.121116,-0.532172 -0.08075,-0.155983 -0.192685,-0.277098 -0.333985,-0.363345 -0.142219,-0.08809 -0.307375,-0.132127 -0.495471,-0.132127 -0.183509,0 -0.348665,0.04589 -0.495471,0.135796 -0.146807,0.08808 -0.260582,0.209199 -0.341324,0.363346 -0.08075,0.152312 -0.121116,0.32848 -0.121116,0.528502 0,0.200942 0.04036,0.378028 0.121116,0.532173 0.08075,0.154147 0.194517,0.275263 0.341324,0.363347 0.146806,0.08808 0.311962,0.132125 0.495471,0.132125 z m 3.720622,0.67531 v -4.668442 h 0.6643 l 2.569111,3.460959 -0.344995,0.06605 v -3.527023 h 0.851476 v 4.668442 h -0.671637 l -2.52874,-3.482981 0.311961,-0.06973 v 3.552715 z m 6.189725,0.0734 c -0.352335,0 -0.660629,-0.078 -0.924882,-0.23489 -0.262415,-0.158734 -0.46611,-0.374355 -0.612915,-0.645948 -0.144971,-0.271591 -0.216541,-0.572544 -0.216541,-0.902858 0,-0.342244 0.0734,-0.645949 0.22021,-0.9102 0.148643,-0.266086 0.352336,-0.47712 0.609246,-0.631267 0.256911,-0.154147 0.543185,-0.231221 0.858819,-0.231221 0.268839,0 0.50373,0.04404 0.70467,0.132126 0.202777,0.08809 0.375274,0.2092 0.517491,0.363346 0.141301,0.154147 0.25049,0.330315 0.326645,0.528503 0.07523,0.198189 0.113773,0.412893 0.113773,0.642278 0,0.05873 -0.0036,0.120202 -0.01098,0.183508 -0.0055,0.06148 -0.0165,0.115606 -0.03304,0.161487 h -2.631502 v -0.627597 h 2.169067 l -0.389039,0.293612 c 0.03671,-0.190848 0.02662,-0.360592 -0.02935,-0.510152 -0.05689,-0.151394 -0.148642,-0.271591 -0.275263,-0.359676 -0.12754,-0.08808 -0.281684,-0.132125 -0.462441,-0.132125 -0.171578,0 -0.324808,0.04312 -0.458768,0.128456 -0.132127,0.08625 -0.233057,0.211951 -0.300954,0.378026 -0.06882,0.16424 -0.09451,0.363346 -0.07708,0.598236 -0.01744,0.208281 0.01098,0.392707 0.08441,0.554194 0.0734,0.159652 0.180753,0.282602 0.322974,0.370685 0.144054,0.08809 0.310127,0.132126 0.499142,0.132126 0.188093,0 0.348664,-0.03854 0.480787,-0.11744 0.132129,-0.08075 0.234892,-0.187178 0.308296,-0.319304 l 0.664298,0.322975 c -0.06607,0.164239 -0.170661,0.308293 -0.311963,0.433079 -0.142221,0.124784 -0.311047,0.222962 -0.506483,0.293612 -0.193602,0.07065 -0.406469,0.106439 -0.638607,0.106439 z m 3.429763,0 c -0.262417,0 -0.490884,-0.0578 -0.68632,-0.172497 -0.193601,-0.117439 -0.341324,-0.27985 -0.444091,-0.488131 -0.10276,-0.210117 -0.154145,-0.4551 -0.154145,-0.734033 v -2.088318 h 0.822117 v 2.018586 c 0,0.142219 0.02753,0.267005 0.08441,0.374357 0.05597,0.105522 0.136712,0.189013 0.242228,0.249571 0.107355,0.06148 0.228469,0.09175 0.363348,0.09175 0.132125,0 0.250489,-0.03028 0.356005,-0.09175 0.104593,-0.06055 0.187178,-0.144972 0.245902,-0.253242 0.05873,-0.110106 0.08808,-0.239477 0.08808,-0.389036 v -2.000236 h 0.818444 v 3.409577 h -0.778075 v -0.67164 l 0.06973,0.121117 c -0.0789,0.20828 -0.2092,0.365179 -0.392708,0.469779 -0.181674,0.102759 -0.392705,0.154146 -0.634938,0.154146 z m 4.051856,-0.03671 c -0.38445,0 -0.681734,-0.104594 -0.891851,-0.315635 -0.211035,-0.210117 -0.315632,-0.507398 -0.315632,-0.891848 V 45.022211 H 80.285639 V 44.28818 h 0.06239 c 0.166074,0 0.294531,-0.04221 0.385368,-0.128456 0.09267,-0.08808 0.139465,-0.216539 0.139465,-0.385366 v -0.260566 h 0.822115 v 0.774404 h 0.781742 v 0.734031 h -0.781742 v 1.460723 c 0,0.112856 0.01926,0.209199 0.05873,0.289943 0.03854,0.0789 0.100926,0.138549 0.18718,0.179838 0.08533,0.04221 0.195434,0.0624 0.330312,0.0624 0.02935,0 0.0633,-8.88e-4 0.10276,-0.0036 0.03854,-0.0046 0.07708,-0.0092 0.113773,-0.01468 v 0.701 c -0.05689,0.0074 -0.122951,0.01468 -0.198187,0.02201 -0.07616,0.0092 -0.145889,0.01468 -0.2092,0.01468 z m 1.034982,-0.03671 v -3.409578 h 0.77073 v 0.759722 l -0.06241,-0.113772 c 0.07803,-0.254159 0.201862,-0.431245 0.37069,-0.532173 0.170666,-0.10001 0.375271,-0.150478 0.612919,-0.150478 h 0.201853 v 0.726692 h -0.297279 c -0.233059,0 -0.420228,0.07248 -0.561535,0.216539 -0.142221,0.144971 -0.212871,0.346831 -0.212871,0.605577 v 1.897472 z m 4.008734,0.0734 c -0.333066,0 -0.636774,-0.07708 -0.910198,-0.231219 -0.274349,-0.154147 -0.491801,-0.364263 -0.653296,-0.631267 -0.159648,-0.266087 -0.238553,-0.57071 -0.238553,-0.91387 0,-0.342242 0.07892,-0.646865 0.238553,-0.913869 0.161495,-0.26884 0.378032,-0.480791 0.64962,-0.634938 0.271596,-0.154147 0.576218,-0.231221 0.913874,-0.231221 0.334904,0 0.638602,0.07708 0.910199,0.231221 0.271588,0.154147 0.486297,0.365181 0.645944,0.631267 0.161495,0.264251 0.24223,0.57071 0.24223,0.91754 0,0.34316 -0.08257,0.647783 -0.245896,0.91387 -0.161487,0.267004 -0.378032,0.47712 -0.64962,0.631267 -0.271588,0.154147 -0.572542,0.231219 -0.902857,0.231219 z m 0,-0.748712 c 0.183503,0 0.344988,-0.04404 0.484458,-0.132126 0.141307,-0.08808 0.253246,-0.210116 0.33399,-0.367016 0.0807,-0.155981 0.12111,-0.332148 0.12111,-0.528502 0,-0.200023 -0.0404,-0.376191 -0.12111,-0.528503 -0.08078,-0.154147 -0.192683,-0.275262 -0.33399,-0.363345 -0.13947,-0.08993 -0.300955,-0.135798 -0.484458,-0.135798 -0.189016,0 -0.354168,0.04589 -0.495476,0.135798 -0.142212,0.08808 -0.253237,0.209198 -0.33398,0.363345 -0.0807,0.152312 -0.121119,0.32848 -0.121119,0.528503 0,0.196354 0.0404,0.372521 0.121119,0.528502 0.08078,0.1569 0.191768,0.278933 0.33398,0.367016 0.141308,0.08808 0.30646,0.132126 0.495476,0.132126 z m 2.417719,0.67531 v -3.409577 h 0.77073 v 0.671637 l -0.06241,-0.117439 c 0.07803,-0.205529 0.207366,-0.360593 0.389031,-0.46611 0.183513,-0.107355 0.396383,-0.161488 0.638612,-0.161488 0.249571,0 0.470697,0.05505 0.664294,0.165157 0.195435,0.108273 0.346835,0.258746 0.4551,0.45143 0.110106,0.193601 0.165161,0.418398 0.165161,0.67531 v 2.191085 h -0.822114 v -2.000227 c 0,-0.14864 -0.02939,-0.277096 -0.08807,-0.385366 -0.05877,-0.110106 -0.139469,-0.194518 -0.242229,-0.253241 -0.100926,-0.06055 -0.219298,-0.09176 -0.356007,-0.09176 -0.134879,0 -0.255075,0.03119 -0.35968,0.09176 -0.10276,0.05873 -0.183503,0.143137 -0.24223,0.253241 -0.05877,0.108272 -0.08807,0.236726 -0.08807,0.385366 v 2.000238 z m 6.56499,0.0734 c -0.296365,0 -0.57162,-0.05414 -0.825781,-0.161487 -0.252323,-0.107355 -0.468868,-0.257829 -0.649619,-0.45143 C 94.449699,46.962806 94.317571,46.735256 94.235,46.475593 L 94.93967,46.1673 c 0.11469,0.269756 0.278929,0.479873 0.4918,0.631267 0.212871,0.152311 0.452347,0.22755 0.719345,0.22755 0.148649,0 0.27893,-0.02294 0.389041,-0.06973 0.111939,-0.04864 0.198186,-0.114689 0.256912,-0.198189 0.06054,-0.08258 0.09175,-0.183507 0.09175,-0.300952 0,-0.136715 -0.0404,-0.250489 -0.12111,-0.341326 -0.0807,-0.08991 -0.203699,-0.159651 -0.367023,-0.209198 l -0.895508,-0.289926 c -0.362435,-0.111939 -0.636774,-0.280767 -0.822115,-0.506481 -0.183512,-0.224798 -0.275264,-0.489966 -0.275264,-0.796425 0,-0.266087 0.06605,-0.500976 0.198187,-0.70467 0.132128,-0.205529 0.315631,-0.365181 0.550526,-0.480791 0.236725,-0.114689 0.507398,-0.172497 0.811106,-0.172497 0.280768,0 0.537681,0.04954 0.77073,0.146805 0.234896,0.09818 0.43675,0.233974 0.605578,0.407388 0.168828,0.174333 0.294527,0.377109 0.378023,0.609247 l -0.700995,0.315634 c -0.09084,-0.234891 -0.229384,-0.415646 -0.414733,-0.543184 -0.183503,-0.126621 -0.396373,-0.190848 -0.638603,-0.190848 -0.142221,0 -0.267006,0.02476 -0.374356,0.0734 -0.108272,0.04679 -0.192682,0.112856 -0.253247,0.198188 -0.06152,0.08625 -0.09175,0.187177 -0.09175,0.304623 0,0.13029 0.04128,0.244066 0.124785,0.341325 0.08257,0.09818 0.210119,0.174332 0.381698,0.22755 l 0.858815,0.271591 c 0.371605,0.120202 0.650535,0.286273 0.836799,0.499142 0.18534,0.21287 0.278929,0.476203 0.278929,0.789083 0,0.269758 -0.06978,0.506483 -0.209195,0.712012 -0.137631,0.203694 -0.326648,0.363345 -0.568877,0.480791 -0.242229,0.114689 -0.52392,0.172497 -0.844139,0.172497 z m 3.957347,0 c -0.337653,0 -0.641361,-0.078 -0.910196,-0.23489 -0.26975,-0.155982 -0.480792,-0.368852 -0.634936,-0.638608 -0.154145,-0.268839 -0.231221,-0.572545 -0.231221,-0.9102 0,-0.337653 0.07706,-0.639525 0.231221,-0.906529 0.154144,-0.268839 0.365186,-0.480791 0.634936,-0.634938 0.268835,-0.154146 0.572543,-0.231219 0.910196,-0.231219 0.24223,0 0.46703,0.04312 0.67531,0.128455 0.21012,0.08625 0.39087,0.203694 0.54319,0.352336 0.15414,0.146807 0.26424,0.322973 0.33031,0.528502 l -0.71935,0.311963 c -0.0643,-0.170661 -0.17066,-0.308292 -0.31931,-0.411057 -0.1468,-0.104605 -0.31746,-0.157817 -0.51015,-0.157817 -0.178919,0 -0.337653,0.04404 -0.477114,0.132127 -0.139469,0.08625 -0.24957,0.207362 -0.330314,0.363345 -0.07892,0.154147 -0.117439,0.332149 -0.117439,0.532172 0,0.200942 0.03853,0.378028 0.117439,0.532173 0.08078,0.154147 0.190845,0.275263 0.330314,0.363347 0.139461,0.08808 0.298195,0.132125 0.477114,0.132125 0.1982,0 0.36886,-0.0523 0.51383,-0.157816 0.1468,-0.104605 0.2514,-0.244066 0.31563,-0.418398 l 0.71935,0.322974 c -0.0661,0.1936 -0.17524,0.366097 -0.32664,0.517492 -0.14956,0.152312 -0.3294,0.270674 -0.53951,0.356005 -0.20828,0.08533 -0.43584,0.128456 -0.68266,0.128456 z m 2.16815,-0.0734 v -3.409577 h 0.82212 v 3.409577 z m 0,-3.791274 v -0.877168 h 0.82212 v 0.877168 z m 3.19671,3.864676 c -0.35233,0 -0.66063,-0.07799 -0.92488,-0.23489 -0.26242,-0.158734 -0.46612,-0.374356 -0.61292,-0.645948 -0.14497,-0.271591 -0.21653,-0.572544 -0.21653,-0.902858 0,-0.342244 0.0734,-0.645949 0.2202,-0.9102 0.14865,-0.266086 0.35234,-0.47712 0.60925,-0.631267 0.25691,-0.154147 0.54319,-0.231221 0.85882,-0.231221 0.26883,0 0.50373,0.04404 0.70467,0.132126 0.20277,0.08809 0.37527,0.2092 0.51749,0.363346 0.1413,0.154147 0.25048,0.330315 0.32665,0.528503 0.0752,0.198189 0.11377,0.412893 0.11377,0.642278 0,0.05873 -0.004,0.120201 -0.011,0.183507 -0.005,0.06148 -0.0165,0.115607 -0.033,0.161488 h -2.63151 v -0.627597 h 2.16906 l -0.38906,0.293634 c 0.0367,-0.190848 0.0266,-0.360593 -0.0294,-0.510152 -0.0569,-0.151394 -0.14864,-0.271591 -0.27526,-0.359676 -0.12754,-0.08808 -0.28169,-0.132126 -0.46245,-0.132126 -0.17158,0 -0.32481,0.04312 -0.45877,0.128457 -0.13212,0.08625 -0.23305,0.211951 -0.30095,0.378026 -0.0688,0.164239 -0.0945,0.363345 -0.077,0.598235 -0.0174,0.208282 0.011,0.392708 0.0844,0.554195 0.0734,0.159652 0.18075,0.282601 0.32298,0.370685 0.14405,0.08809 0.31013,0.132125 0.49914,0.132125 0.18809,0 0.34866,-0.03854 0.48079,-0.117439 0.13213,-0.08075 0.23489,-0.187179 0.3083,-0.319304 l 0.66429,0.322974 c -0.0661,0.16424 -0.17066,0.308294 -0.31196,0.43308 -0.14222,0.124784 -0.31105,0.222961 -0.50649,0.293612 -0.19359,0.07065 -0.40646,0.106439 -0.6386,0.106439 z m 2.21494,-0.0734 v -3.409578 h 0.77074 v 0.671639 l -0.0624,-0.11744 c 0.078,-0.20553 0.20735,-0.360593 0.38903,-0.466111 0.18351,-0.107355 0.39638,-0.161486 0.63861,-0.161486 0.24957,0 0.4707,0.05505 0.66429,0.165157 0.19544,0.108272 0.34684,0.258746 0.4551,0.451429 0.11011,0.193601 0.16516,0.418398 0.16516,0.67531 v 2.191096 h -0.82211 V 45.69753 c 0,-0.148641 -0.0294,-0.277096 -0.0881,-0.385367 -0.0588,-0.110106 -0.13947,-0.194519 -0.24223,-0.253241 -0.10092,-0.06055 -0.21929,-0.09176 -0.356,-0.09176 -0.13488,0 -0.25509,0.03119 -0.35968,0.09176 -0.10276,0.05872 -0.18351,0.143136 -0.24223,0.253241 -0.0588,0.108272 -0.0881,0.236726 -0.0881,0.385367 v 2.000236 z m 5.35477,0.0734 c -0.33766,0 -0.64137,-0.07799 -0.91021,-0.23489 -0.26975,-0.155981 -0.48079,-0.36885 -0.63494,-0.638607 -0.15414,-0.26884 -0.23122,-0.572545 -0.23122,-0.910199 0,-0.337655 0.0771,-0.639525 0.23122,-0.906529 0.15415,-0.26884 0.36519,-0.480791 0.63494,-0.634938 0.26884,-0.154147 0.57255,-0.231221 0.91021,-0.231221 0.24223,0 0.46702,0.04313 0.6753,0.128456 0.21012,0.08625 0.39088,0.203695 0.54319,0.352335 0.15414,0.146807 0.26425,0.322975 0.33031,0.528504 l -0.71934,0.311963 c -0.0643,-0.170663 -0.17067,-0.308292 -0.31931,-0.411057 -0.14682,-0.104605 -0.31747,-0.157819 -0.51015,-0.157819 -0.17892,0 -0.33766,0.04404 -0.47713,0.132127 -0.13947,0.08625 -0.24957,0.207364 -0.33031,0.363345 -0.0789,0.154147 -0.11744,0.332151 -0.11744,0.532174 0,0.20094 0.0385,0.378027 0.11744,0.532173 0.0808,0.154147 0.19084,0.275262 0.33031,0.363345 0.13947,0.08808 0.29821,0.132126 0.47713,0.132126 0.19819,0 0.36885,-0.0523 0.51381,-0.157817 0.14681,-0.104593 0.25142,-0.244066 0.31565,-0.418398 l 0.71934,0.322974 c -0.0661,0.1936 -0.17525,0.366099 -0.32665,0.517493 -0.14955,0.152311 -0.32938,0.270673 -0.5395,0.356005 -0.20828,0.08533 -0.43584,0.128455 -0.68265,0.128455 z m 3.78668,0 c -0.35234,0 -0.66062,-0.07799 -0.92488,-0.23489 -0.26242,-0.158734 -0.46611,-0.374356 -0.61292,-0.645948 -0.14496,-0.271591 -0.21653,-0.572544 -0.21653,-0.902858 0,-0.342244 0.0735,-0.645949 0.22021,-0.9102 0.14864,-0.266086 0.35233,-0.47712 0.60924,-0.631267 0.25692,-0.154147 0.54318,-0.231221 0.85882,-0.231221 0.26885,0 0.50372,0.04404 0.70467,0.132126 0.20277,0.08809 0.37528,0.2092 0.51749,0.363346 0.1413,0.154147 0.25049,0.330315 0.32665,0.528503 0.0753,0.198189 0.11375,0.412893 0.11375,0.642278 0,0.05873 -0.004,0.120201 -0.0109,0.183507 -0.005,0.06148 -0.0165,0.115607 -0.0331,0.161488 h -2.6315 v -0.627597 h 2.16907 l -0.38904,0.293612 c 0.0367,-0.190848 0.0267,-0.360592 -0.0294,-0.510152 -0.0569,-0.151394 -0.14865,-0.271591 -0.27527,-0.359676 -0.12753,-0.08808 -0.28168,-0.132125 -0.46245,-0.132125 -0.17157,0 -0.3248,0.04312 -0.45875,0.128456 -0.13214,0.08625 -0.23306,0.211951 -0.30096,0.378026 -0.0688,0.16424 -0.0946,0.363345 -0.0771,0.598236 -0.0174,0.208281 0.0109,0.392707 0.0844,0.554194 0.0735,0.159652 0.18075,0.282602 0.32297,0.370685 0.14406,0.08809 0.31014,0.132126 0.49914,0.132126 0.18809,0 0.34867,-0.03854 0.48078,-0.11744 0.13214,-0.08075 0.2349,-0.187178 0.30831,-0.319304 l 0.66429,0.322975 c -0.066,0.164239 -0.17065,0.308293 -0.31196,0.433079 -0.14222,0.124784 -0.31105,0.222962 -0.50649,0.293612 -0.19359,0.07065 -0.40647,0.106439 -0.6386,0.106439 z m 0,0"
       style="fill:#9340a5;fill-opacity:1;fill-rule:nonzero;stroke:none;stroke-width:0.313187"
       aria-label="PaNOSC&#10;Photon and Neutron Science" />
    <path
       id="path162"
       d="M 0,0 C -0.119,0 -0.238,0.014 -0.357,0.049 -2.94,0.728 -5.62,1.078 -8.322,1.078 H -8.42 c -0.77,0 -1.4,0.63 -1.4,1.4 0,0.77 0.63,1.4 1.4,1.4 h 0.098 c 2.94,0 5.865,-0.378 8.679,-1.12 C 1.106,2.562 1.554,1.792 1.351,1.05 1.183,0.42 0.616,0.007 0,0.007 Z m -24.672,-3.325 c -0.483,0 -0.952,0.252 -1.211,0.693 -0.392,0.665 -0.161,1.526 0.504,1.911 2.562,1.491 5.312,2.639 8.175,3.416 0.742,0.196 1.512,-0.238 1.715,-0.987 0.203,-0.749 -0.238,-1.519 -0.987,-1.715 -2.624,-0.707 -5.144,-1.764 -7.496,-3.136 -0.224,-0.126 -0.462,-0.189 -0.7,-0.189 z m 39.279,-5.053 c -0.357,0 -0.714,0.133 -0.987,0.406 -1.931,1.918 -4.108,3.577 -6.46,4.927 -0.672,0.385 -0.903,1.239 -0.518,1.911 0.385,0.672 1.239,0.903 1.911,0.518 2.569,-1.477 4.934,-3.282 7.041,-5.375 0.546,-0.546 0.553,-1.428 0,-1.981 -0.273,-0.273 -0.63,-0.413 -0.994,-0.413 z m -51.163,-6.887 c -0.238,0 -0.476,0.063 -0.7,0.189 -0.672,0.385 -0.903,1.239 -0.518,1.911 1.477,2.561 3.282,4.934 5.382,7.034 0.546,0.546 1.435,0.553 1.981,0 0.546,-0.546 0.553,-1.435 0,-1.981 -1.925,-1.932 -3.584,-4.101 -4.935,-6.46 -0.258,-0.448 -0.727,-0.7 -1.217,-0.7 z m 59.639,-7.664 c -0.616,0 -1.183,0.413 -1.351,1.036 -0.714,2.624 -1.77,5.144 -3.142,7.496 -0.392,0.665 -0.161,1.526 0.504,1.918 0.665,0.392 1.526,0.168 1.917,-0.504 1.498,-2.562 2.646,-5.313 3.423,-8.168 0.203,-0.749 -0.238,-1.519 -0.987,-1.715 -0.126,-0.035 -0.245,-0.049 -0.364,-0.049 z m 0.035,-16.966 c -0.119,0 -0.238,0.014 -0.364,0.049 -0.749,0.203 -1.19,0.966 -0.994,1.715 0.7,2.617 1.05,5.326 1.05,8.056 v 0.119 c 0,0.77 0.616,1.407 1.386,1.414 h 0.014 c 0.77,0 1.393,-0.616 1.4,-1.386 v -0.14 c 0,-2.975 -0.385,-5.928 -1.148,-8.777 -0.168,-0.623 -0.735,-1.043 -1.351,-1.043 z m -59.611,-7.902 c -0.483,0 -0.952,0.252 -1.211,0.7 -1.491,2.569 -2.639,5.319 -3.409,8.175 -0.203,0.749 0.238,1.512 0.987,1.715 0.749,0.203 1.512,-0.238 1.715,-0.987 0.707,-2.625 1.757,-5.145 3.121,-7.496 0.385,-0.672 0.161,-1.526 -0.51,-1.911 -0.224,-0.126 -0.462,-0.189 -0.7,-0.189 z m 51.184,-6.677 c -0.357,0 -0.714,0.14 -0.987,0.406 -0.546,0.546 -0.546,1.435 0,1.981 1.925,1.924 3.591,4.094 4.949,6.446 0.385,0.672 1.239,0.903 1.91,0.511 0.672,-0.385 0.896,-1.246 0.511,-1.911 -1.483,-2.562 -3.296,-4.927 -5.396,-7.027 -0.273,-0.273 -0.63,-0.413 -0.994,-0.413 z m -39.265,-5.207 c -0.238,0 -0.476,0.062 -0.7,0.189 -2.561,1.476 -4.927,3.289 -7.027,5.382 -0.546,0.546 -0.546,1.435 0,1.981 0.546,0.546 1.435,0.546 1.981,0 1.932,-1.925 4.101,-3.584 6.453,-4.942 0.672,-0.385 0.896,-1.246 0.511,-1.911 -0.259,-0.448 -0.728,-0.699 -1.211,-0.699 z m 24.693,-3.227 c -0.616,0 -1.183,0.413 -1.351,1.036 -0.203,0.749 0.245,1.512 0.987,1.715 2.625,0.699 5.144,1.749 7.503,3.114 0.672,0.385 1.526,0.161 1.911,-0.511 0.385,-0.672 0.161,-1.526 -0.511,-1.91 -2.569,-1.491 -5.319,-2.632 -8.182,-3.402 -0.119,-0.035 -0.245,-0.049 -0.364,-0.049 z m -8.42,-1.106 h -0.035 c -2.967,0 -5.907,0.385 -8.749,1.141 -0.749,0.196 -1.19,0.966 -0.994,1.715 0.196,0.749 0.966,1.197 1.715,0.994 2.604,-0.693 5.305,-1.043 8.028,-1.043 0.77,0 1.414,-0.63 1.414,-1.4 0,-0.77 -0.609,-1.4 -1.386,-1.4 z"
       style="fill:#943fa5;fill-opacity:1;fill-rule:nonzero;stroke:none"
       transform="matrix(0.31318688,0,0,-0.31318688,15.300435,32.559431)"
       clip-path="url(#clipPath163)" />
    <path
       id="path164"
       d="m 0,0 c -6.964,0 -12.633,-5.669 -12.633,-12.633 0,-6.965 5.669,-12.634 12.633,-12.634 6.964,0 12.633,5.669 12.633,12.634 C 12.633,-5.669 6.964,0 0,0 m 0,-28.067 c -8.511,0 -15.433,6.923 -15.433,15.434 0,8.511 6.922,15.433 15.433,15.433 8.511,0 15.433,-6.922 15.433,-15.433 0,-8.511 -6.922,-15.434 -15.433,-15.434"
       style="fill:#943fa5;fill-opacity:1;fill-rule:nonzero;stroke:none"
       transform="matrix(0.31318688,0,0,-0.31318688,12.689655,38.019781)"
       clip-path="url(#clipPath165)" />
    <path
       id="path166"
       d="m 0,0 h -4.724 v 4.724 c 0,0.77 -0.63,1.4 -1.4,1.4 -0.77,0 -1.4,-0.63 -1.4,-1.4 V 0 h -4.724 c -0.77,0 -1.4,-0.63 -1.4,-1.4 0,-0.77 0.63,-1.4 1.4,-1.4 h 4.724 v -4.724 c 0,-0.77 0.63,-1.4 1.4,-1.4 0.77,0 1.4,0.63 1.4,1.4 V -2.8 H 0 c 0.77,0 1.4,0.63 1.4,1.4 C 1.4,-0.63 0.77,0 0,0"
       style="fill:#943fa5;fill-opacity:1;fill-rule:nonzero;stroke:none"
       transform="matrix(0.31318688,0,0,-0.31318688,14.607745,41.537966)"
       clip-path="url(#clipPath167)" />
    <path
       id="path168"
       d="m 0,0 c -1.96,0 -3.548,-1.596 -3.548,-3.549 0,-1.952 1.595,-3.548 3.548,-3.548 1.953,0 3.549,1.596 3.549,3.548 C 3.549,-1.596 1.96,0 0,0 m 0,-9.897 c -3.5,0 -6.348,2.849 -6.348,6.348 0,3.5 2.848,6.349 6.348,6.349 3.5,0 6.348,-2.849 6.348,-6.349 C 6.348,-7.048 3.5,-9.897 0,-9.897"
       style="fill:#943fa5;fill-opacity:1;fill-rule:nonzero;stroke:none"
       transform="matrix(0.31318688,0,0,-0.31318688,2.5778218,39.657248)"
       clip-path="url(#clipPath169)" />
    <path
       id="path170"
       d="m 0,0 h 27.65 c 0.135,0.899 0.234,1.848 0.312,2.832 H -0.29 C -0.22,1.855 -0.128,0.906 -0.007,0 Z"
       style="fill:#943fa5;fill-opacity:1;fill-rule:nonzero;stroke:none"
       transform="matrix(0.31318688,0,0,-0.31318688,6.3576047,2.9922089)"
       clip-path="url(#clipPath171)" />
    <path
       id="path172"
       d="m 0,0 c 0.751,-0.559 1.515,-1.126 2.28,-1.699 7.385,6.061 13.744,13.913 13.744,30.652 0,0.779 -0.63,1.416 -1.416,1.416 -0.786,0 -1.416,-0.637 -1.416,-1.416 C 13.192,13.014 7.215,5.898 -0.064,0.05 -0.042,0.035 -0.021,0.021 0,0"
       style="fill:#943fa5;fill-opacity:1;fill-rule:nonzero;stroke:none"
       transform="matrix(0.31318688,0,0,-0.31318688,12.617943,9.88896)"
       clip-path="url(#clipPath173)" />
    <path
       id="path174"
       d="m 0,0 c -7.35,-5.962 -13.737,-13.581 -13.737,-29.86 0,-0.786 0.638,-1.416 1.416,-1.416 0.779,0 1.417,0.638 1.417,1.416 0,15.458 5.997,22.347 13.241,28.104 C 1.565,-1.182 0.779,-0.602 0,-0.007 Z"
       style="fill:#943fa5;fill-opacity:1;fill-rule:nonzero;stroke:none"
       transform="matrix(0.31318688,0,0,-0.31318688,9.6684271,12.113212)"
       clip-path="url(#clipPath175)" />
    <path
       id="path176"
       d="m 0,0 c -0.779,0 -1.416,0.637 -1.416,1.416 0,18.354 -8.455,24.627 -17.412,31.269 -9.311,6.904 -18.934,14.048 -18.934,34.639 0,0.779 0.638,1.416 1.416,1.416 0.779,0 1.417,-0.637 1.417,-1.416 0,-19.161 8.638,-25.576 17.794,-32.359 C -8.015,28.196 1.423,21.193 1.416,1.416 1.416,0.63 0.786,0 0,0"
       style="fill:#943fa5;fill-opacity:1;fill-rule:nonzero;stroke:none"
       transform="matrix(0.31318688,0,0,-0.31318688,17.192758,21.908383)"
       clip-path="url(#clipPath177)" />
    <path
       id="path178"
       d="m 0,0 h -27.813 c -0.121,-0.899 -0.22,-1.841 -0.283,-2.832 H 0.255 C 0.198,-1.848 0.106,-0.906 -0.007,0 Z"
       style="fill:#943fa5;fill-opacity:1;fill-rule:nonzero;stroke:none"
       transform="matrix(0.31318688,0,0,-0.31318688,16.638371,19.54661)"
       clip-path="url(#clipPath179)" />
    <path
       id="path180"
       d="m 0,0 h -22.843 c -0.453,-0.885 -0.863,-1.827 -1.232,-2.832 H 1.013 C 0.708,-1.841 0.375,-0.892 0,0"
       style="fill:#943fa5;fill-opacity:1;fill-rule:nonzero;stroke:none"
       transform="matrix(0.31318688,0,0,-0.31318688,15.919887,16.741331)"
       clip-path="url(#clipPath181)" />
    <path
       id="path182"
       d="m 0,0 h -9.162 c -1.105,-0.914 -2.153,-1.841 -3.13,-2.832 H 2.464 C 1.692,-1.827 0.871,-0.885 0.007,0 Z"
       style="fill:#943fa5;fill-opacity:1;fill-rule:nonzero;stroke:none"
       transform="matrix(0.31318688,0,0,-0.31318688,14.034941,13.936084)"
       clip-path="url(#clipPath183)" />
    <path
       id="path184"
       d="m 0,0 h 9.042 c 1.091,0.906 2.124,1.841 3.087,2.832 H -2.429 C -1.664,1.827 -0.857,0.885 0,0"
       style="fill:#943fa5;fill-opacity:1;fill-rule:nonzero;stroke:none"
       transform="matrix(0.31318688,0,0,-0.31318688,8.9965941,8.6049862)"
       clip-path="url(#clipPath185)" />
    <path
       id="path186"
       d="m 0,0 h 22.567 c 0.453,0.885 0.863,1.827 1.232,2.832 H -1.027 C -0.715,1.841 -0.375,0.892 0,0"
       style="fill:#943fa5;fill-opacity:1;fill-rule:nonzero;stroke:none"
       transform="matrix(0.31318688,0,0,-0.31318688,7.1248501,5.7974858)"
       clip-path="url(#clipPath187)" />
    <path
       id="path188"
       d="m 0,0 c -2.06,0 -3.746,-1.678 -3.746,-3.746 0,-2.067 1.678,-3.745 3.746,-3.745 2.068,0 3.746,1.678 3.746,3.745 C 3.746,-1.678 2.068,0 0,0 m 0,-10.317 c -3.625,0 -6.578,2.953 -6.578,6.578 0,3.626 2.953,6.578 6.578,6.578 3.625,0 6.578,-2.952 6.578,-6.578 0,-3.625 -2.953,-6.578 -6.578,-6.578"
       style="fill:#943fa5;fill-opacity:1;fill-rule:nonzero;stroke:none"
       transform="matrix(0.31318688,0,0,-0.31318688,20.927136,3.739566)"
       clip-path="url(#clipPath189)" />
    <path
       id="path190"
       d="m 0,0 c -2.06,0 -3.746,-1.678 -3.746,-3.746 0,-2.067 1.678,-3.746 3.746,-3.746 2.068,0 3.746,1.679 3.746,3.746 C 3.746,-1.678 2.068,0 0,0 m 0,-10.317 c -3.625,0 -6.578,2.953 -6.578,6.578 0,3.626 2.946,6.578 6.578,6.578 3.632,0 6.578,-2.952 6.578,-6.578 0,-3.625 -2.953,-6.578 -6.578,-6.578"
       style="fill:#943fa5;fill-opacity:1;fill-rule:nonzero;stroke:none"
       transform="matrix(0.31318688,0,0,-0.31318688,3.4081826,10.527609)"
       clip-path="url(#clipPath191)" />
    <path
       id="path192"
       d="m 0,0 c -1.423,0 -2.584,-1.161 -2.584,-2.584 0,-1.424 1.161,-2.585 2.584,-2.585 1.423,0 2.584,1.161 2.584,2.585 C 2.584,-1.161 1.423,0 0,0 m 0,-8.008 c -2.988,0 -5.417,2.428 -5.417,5.416 0,2.988 2.429,5.417 5.417,5.417 2.988,0 5.417,-2.429 5.417,-5.417 C 5.417,-5.58 2.988,-8.008 0,-8.008"
       style="fill:#943fa5;fill-opacity:1;fill-rule:nonzero;stroke:none"
       transform="matrix(0.31318688,0,0,-0.31318688,18.523294,11.776098)"
       clip-path="url(#clipPath193)" />
    <path
       id="path194"
       d="M 32.489167,12.694565 V 8.0261239 h 0.851476 v 3.9160591 h 2.000237 v 0.752382 z m 5.067571,0.0734 c -0.296366,0 -0.571626,-0.05414 -0.825786,-0.161487 -0.252323,-0.107355 -0.468863,-0.257826 -0.649618,-0.451427 -0.181672,-0.195436 -0.313799,-0.422986 -0.396377,-0.68265 l 0.704671,-0.308292 c 0.114689,0.269755 0.278932,0.479873 0.491801,0.631266 0.212869,0.152312 0.452348,0.22755 0.719351,0.22755 0.148641,0 0.278932,-0.02294 0.389038,-0.06973 0.111939,-0.04863 0.198188,-0.114689 0.25691,-0.198188 0.06055,-0.08258 0.09176,-0.183508 0.09176,-0.300952 0,-0.136714 -0.04037,-0.250489 -0.121117,-0.341325 -0.08075,-0.08993 -0.203693,-0.159652 -0.367015,-0.2092 l -0.89552,-0.289941 C 36.592409,10.50165 36.318064,10.332823 36.132721,10.107108 35.949213,9.88231 35.857459,9.617141 35.857459,9.3106835 c 0,-0.2660859 0.06607,-0.5009773 0.198189,-0.7046705 0.132125,-0.2055294 0.315634,-0.3651803 0.550523,-0.4807907 0.236726,-0.1146919 0.5074,-0.1724971 0.811106,-0.1724971 0.280768,0 0.537679,0.049546 0.770733,0.1468058 0.23489,0.098177 0.436749,0.2339728 0.605577,0.4073879 0.168827,0.1743321 0.294529,0.3771086 0.378025,0.6092462 l -0.701,0.3156335 C 38.379769,9.1969042 38.241223,9.016149 38.05588,8.8886107 37.872372,8.7619908 37.659502,8.6977629 37.417273,8.6977629 c -0.14222,0 -0.267005,0.024777 -0.374357,0.073401 -0.108272,0.046795 -0.192684,0.1128571 -0.253241,0.198189 -0.06148,0.086246 -0.09176,0.1871784 -0.09176,0.3046229 0,0.130291 0.04129,0.2440652 0.124785,0.3413242 0.08258,0.09818 0.210117,0.174332 0.381697,0.22755 l 0.858817,0.271593 c 0.371603,0.120202 0.650536,0.286272 0.836796,0.49914 0.185344,0.21287 0.278933,0.476205 0.278933,0.789085 0,0.269756 -0.06973,0.506482 -0.2092,0.712011 -0.137631,0.203694 -0.326644,0.363346 -0.568874,0.480791 -0.24223,0.114689 -0.523915,0.172497 -0.844136,0.172496 z m 3.501332,-0.0734 V 8.0261239 h 1.735984 c 0.315634,0 0.595485,0.057803 0.840466,0.1724971 0.244067,0.1156098 0.434914,0.2826024 0.572545,0.502812 0.139467,0.2183747 0.2092,0.4835427 0.2092,0.796425 0,0.322973 -0.07708,0.597317 -0.23122,0.822115 -0.152312,0.225714 -0.357841,0.392707 -0.616587,0.502812 l 1.071687,1.87178 h -0.965252 l -1.145089,-2.047948 0.550522,0.326644 h -1.170779 v 1.721304 z m 0.851477,-2.473686 h 0.895519 c 0.154145,0 0.287189,-0.03028 0.400046,-0.09176 0.111939,-0.06055 0.200024,-0.14497 0.264251,-0.253241 0.0633,-0.110105 0.09543,-0.235807 0.09543,-0.378025 0,-0.1440539 -0.03211,-0.2688396 -0.09543,-0.3743568 -0.06423,-0.1073555 -0.152311,-0.1917646 -0.264251,-0.2532407 -0.112856,-0.060553 -0.245901,-0.091754 -0.400046,-0.091754 h -0.895519 z m 3.289378,2.473686 V 8.0261239 h 0.851477 v 4.6684411 z m -12.709758,7.516486 v -4.668443 h 0.851476 v 3.91606 h 2.000237 v 0.752383 z m 3.331586,0 v -3.409578 h 0.822115 v 3.409578 z m 0,-3.791275 v -0.877168 h 0.822115 v 0.877168 z m 1.975463,3.791275 V 17.535505 H 37.19431 v -0.734032 h 0.601906 v -0.110106 c 0,-0.258746 0.0523,-0.478956 0.157817,-0.660629 0.107356,-0.183507 0.25691,-0.322974 0.44776,-0.418398 0.192682,-0.09543 0.420232,-0.143135 0.682649,-0.143135 0.05139,0 0.106439,0.0036 0.165157,0.01098 0.06055,0.0055 0.111939,0.01098 0.154146,0.01835 v 0.70834 c -0.04221,-0.0074 -0.08075,-0.01194 -0.11744,-0.01467 -0.03486,-0.0018 -0.06607,-0.0036 -0.09543,-0.0036 -0.183509,0 -0.325727,0.04221 -0.425739,0.124784 -0.100926,0.08075 -0.150476,0.207365 -0.150476,0.378027 v 0.110105 h 0.759722 v 0.734032 H 38.61466 v 2.675546 z m 3.671076,0.0734 c -0.352335,0 -0.660628,-0.07799 -0.924879,-0.23489 -0.262417,-0.158735 -0.46611,-0.374357 -0.612917,-0.645948 -0.144972,-0.271593 -0.21654,-0.572545 -0.21654,-0.90286 0,-0.342242 0.0734,-0.645948 0.220209,-0.910199 0.148643,-0.266086 0.352336,-0.477121 0.609248,-0.631267 0.25691,-0.154147 0.543182,-0.23122 0.858817,-0.23122 0.268838,0 0.503729,0.04404 0.70467,0.132126 0.202777,0.08808 0.375274,0.209199 0.517492,0.363345 0.141301,0.154147 0.250488,0.330315 0.326644,0.528504 0.07523,0.198188 0.113773,0.412893 0.113773,0.642277 0,0.05872 -0.0036,0.120202 -0.01098,0.183508 -0.0055,0.06148 -0.01651,0.115606 -0.03304,0.161487 H 40.38829 v -0.627598 h 2.169063 l -0.389036,0.293613 c 0.03669,-0.190848 0.02661,-0.360592 -0.02936,-0.510151 -0.05689,-0.151394 -0.148642,-0.271593 -0.275263,-0.359676 -0.127537,-0.08809 -0.281684,-0.132126 -0.462439,-0.132126 -0.17158,0 -0.324809,0.04312 -0.458771,0.128456 -0.132125,0.08625 -0.233054,0.211952 -0.300952,0.378026 -0.06882,0.164241 -0.09451,0.363345 -0.07708,0.598236 -0.01743,0.208281 0.01098,0.392707 0.08441,0.554194 0.0734,0.159652 0.180756,0.282603 0.322974,0.370686 0.144053,0.08808 0.310129,0.132126 0.499142,0.132126 0.188095,0 0.348665,-0.03854 0.480791,-0.11744 0.132125,-0.08075 0.23489,-0.187179 0.308292,-0.319304 l 0.664299,0.322976 c -0.06607,0.164239 -0.170663,0.308293 -0.311963,0.433078 -0.142219,0.124785 -0.311047,0.222963 -0.506483,0.293612 -0.1936,0.07065 -0.406469,0.106439 -0.638607,0.106439 z m 5.065736,0 c -0.296365,0 -0.571627,-0.05414 -0.825786,-0.161488 -0.252322,-0.107355 -0.468862,-0.257827 -0.649616,-0.451427 -0.181673,-0.195436 -0.3138,-0.422985 -0.396378,-0.682649 l 0.70467,-0.308294 c 0.11469,0.269757 0.278933,0.479873 0.491802,0.631267 0.212869,0.152312 0.452346,0.22755 0.71935,0.22755 0.148642,0 0.278933,-0.02294 0.389037,-0.06973 0.111939,-0.04863 0.198189,-0.114689 0.256911,-0.198189 0.06055,-0.08258 0.09176,-0.183507 0.09176,-0.300952 0,-0.136713 -0.04037,-0.250488 -0.121115,-0.341325 -0.08075,-0.08991 -0.203694,-0.159652 -0.367016,-0.209199 l -0.895519,-0.289941 c -0.362429,-0.11194 -0.636771,-0.280768 -0.822115,-0.506482 -0.183508,-0.224797 -0.275262,-0.489967 -0.275262,-0.796424 0,-0.266088 0.06605,-0.500978 0.198188,-0.704671 0.132127,-0.205529 0.315635,-0.365181 0.550525,-0.480791 0.236725,-0.114689 0.507399,-0.172497 0.811104,-0.172497 0.280768,0 0.537679,0.04954 0.770734,0.146806 0.23489,0.09818 0.436749,0.233973 0.605577,0.407387 0.168826,0.174333 0.294529,0.377108 0.378025,0.609247 l -0.701,0.315634 c -0.09084,-0.23489 -0.229385,-0.415646 -0.414728,-0.543184 -0.183508,-0.12662 -0.396378,-0.190848 -0.638608,-0.190848 -0.142218,0 -0.267004,0.02478 -0.374356,0.0734 -0.108272,0.04679 -0.192683,0.112856 -0.25324,0.198189 -0.06148,0.08625 -0.09176,0.187177 -0.09176,0.304623 0,0.130291 0.04129,0.244066 0.124784,0.341325 0.08258,0.09818 0.210117,0.174332 0.381697,0.227549 l 0.858818,0.271591 c 0.371603,0.120202 0.650535,0.286273 0.836796,0.499143 0.185342,0.212868 0.278932,0.476202 0.278932,0.789083 0,0.269758 -0.06973,0.506483 -0.2092,0.712011 -0.13763,0.203694 -0.326644,0.363346 -0.568874,0.480792 -0.24223,0.114689 -0.523915,0.172497 -0.844137,0.172497 z m 3.95735,0 c -0.337656,0 -0.64136,-0.07799 -0.910201,-0.23489 -0.269756,-0.155981 -0.48079,-0.368852 -0.634937,-0.638608 -0.154146,-0.268839 -0.231219,-0.572545 -0.231219,-0.9102 0,-0.337653 0.07708,-0.639525 0.231219,-0.906529 0.154147,-0.268838 0.365181,-0.480791 0.634937,-0.634937 0.268841,-0.154147 0.572545,-0.23122 0.910201,-0.23122 0.24223,0 0.467027,0.04312 0.675308,0.128455 0.210117,0.08625 0.390873,0.203694 0.543183,0.352336 0.154147,0.146806 0.264252,0.322974 0.330315,0.528503 l -0.71935,0.311963 C 51.255604,17.878662 51.149171,17.741031 51.00053,17.638265 50.853723,17.53366 50.68306,17.48045 50.490378,17.48045 c -0.178921,0 -0.337656,0.04404 -0.477122,0.132126 -0.139466,0.08625 -0.24957,0.207363 -0.330313,0.363345 -0.0789,0.154147 -0.11744,0.332149 -0.11744,0.532173 0,0.200941 0.03854,0.378026 0.11744,0.532172 0.08075,0.154147 0.190847,0.275263 0.330313,0.363347 0.139466,0.08808 0.298201,0.132125 0.477122,0.132125 0.198187,0 0.36885,-0.0523 0.513821,-0.157816 0.146807,-0.104605 0.251406,-0.244066 0.315635,-0.418398 l 0.71935,0.322974 c -0.06607,0.1936 -0.17525,0.366098 -0.326644,0.517492 -0.149559,0.152311 -0.329397,0.270674 -0.539513,0.356005 -0.208282,0.08533 -0.435832,0.128456 -0.682649,0.128456 z m 2.167227,-0.0734 v -3.409578 h 0.822116 v 3.409578 z m 0,-3.791275 v -0.877168 h 0.822116 v 0.877168 z m 3.197627,3.864678 c -0.352336,0 -0.660629,-0.078 -0.92488,-0.23489 -0.262417,-0.158735 -0.466111,-0.374356 -0.612917,-0.645949 -0.144971,-0.271591 -0.21654,-0.572543 -0.21654,-0.902858 0,-0.342243 0.0734,-0.645948 0.220211,-0.9102 0.14864,-0.266086 0.352334,-0.47712 0.609246,-0.631267 0.256911,-0.154147 0.543183,-0.231221 0.858817,-0.231221 0.268838,0 0.503729,0.04404 0.70467,0.132126 0.202776,0.08808 0.375274,0.2092 0.517492,0.363345 0.141302,0.154148 0.250488,0.330316 0.326644,0.528504 0.07525,0.198189 0.113773,0.412893 0.113773,0.642278 0,0.05873 -0.0036,0.120202 -0.01098,0.183508 -0.0055,0.06148 -0.01651,0.115606 -0.03303,0.161488 H 54.776235 V 18.11172 h 2.169063 l -0.389037,0.293612 c 0.03671,-0.190848 0.02661,-0.360592 -0.02936,-0.510152 -0.05689,-0.151394 -0.14864,-0.271591 -0.27526,-0.359675 -0.127539,-0.08808 -0.281685,-0.132126 -0.462441,-0.132126 -0.17158,0 -0.324809,0.04312 -0.458769,0.128456 -0.132126,0.08625 -0.233056,0.211951 -0.300954,0.378027 -0.06882,0.164239 -0.09451,0.363345 -0.07708,0.598235 -0.01743,0.20828 0.01098,0.392707 0.08441,0.554194 0.0734,0.159652 0.180755,0.282602 0.322975,0.370685 0.144053,0.08808 0.310127,0.132126 0.49914,0.132126 0.188096,0 0.348665,-0.03854 0.480791,-0.11744 0.132125,-0.08075 0.234891,-0.187178 0.308293,-0.319304 l 0.6643,0.322975 c -0.06607,0.164239 -0.170664,0.308294 -0.311964,0.433078 -0.142218,0.124786 -0.311046,0.222963 -0.506482,0.293612 -0.193601,0.07065 -0.40647,0.106439 -0.638608,0.106439 z m 2.21494,-0.0734 v -3.409579 h 0.770734 v 0.67164 l -0.06239,-0.117439 c 0.078,-0.205529 0.207363,-0.360593 0.389036,-0.46611 0.183507,-0.107356 0.396376,-0.161487 0.638608,-0.161487 0.24957,0 0.470698,0.05505 0.664297,0.165158 0.195437,0.108272 0.346831,0.258746 0.455101,0.451428 0.110105,0.193602 0.165157,0.418398 0.165157,0.675309 v 2.191086 h -0.822116 v -2.000238 c 0,-0.14864 -0.02936,-0.277095 -0.08808,-0.385366 -0.05872,-0.110106 -0.139466,-0.194518 -0.24223,-0.253241 -0.100926,-0.06055 -0.219291,-0.09175 -0.356005,-0.09175 -0.134879,0 -0.255076,0.03119 -0.359675,0.09175 -0.10276,0.05873 -0.183509,0.143136 -0.242231,0.253241 -0.05872,0.108272 -0.08808,0.236726 -0.08808,0.385366 v 2.000238 z m 5.354761,0.0734 c -0.337654,0 -0.641359,-0.078 -0.910199,-0.23489 -0.269756,-0.155982 -0.480791,-0.368851 -0.634938,-0.638609 -0.154145,-0.268838 -0.231219,-0.572543 -0.231219,-0.910198 0,-0.337655 0.07708,-0.639525 0.231219,-0.906529 0.154147,-0.26884 0.365182,-0.480791 0.634938,-0.634938 0.26884,-0.154147 0.572545,-0.231221 0.910199,-0.231221 0.242232,0 0.467028,0.04312 0.67531,0.128457 0.210116,0.08625 0.390873,0.203693 0.543185,0.352334 0.154144,0.146806 0.264251,0.322975 0.330311,0.528503 l -0.719348,0.311964 c -0.06423,-0.170663 -0.170663,-0.308293 -0.319304,-0.411058 -0.146807,-0.104593 -0.317469,-0.157816 -0.510154,-0.157816 -0.178919,0 -0.337654,0.04404 -0.47712,0.132126 -0.139466,0.08625 -0.24957,0.207363 -0.330315,0.363345 -0.0789,0.154147 -0.117439,0.332149 -0.117439,0.532173 0,0.20094 0.03854,0.378026 0.117439,0.532173 0.08075,0.154147 0.190849,0.275262 0.330315,0.363345 0.139466,0.08808 0.298201,0.132127 0.47712,0.132127 0.198188,0 0.368852,-0.0523 0.513824,-0.157817 0.146806,-0.104606 0.251405,-0.244066 0.315634,-0.418398 l 0.719348,0.322973 c -0.06605,0.193601 -0.17525,0.366099 -0.326641,0.517493 -0.149559,0.152311 -0.329397,0.270674 -0.539514,0.356006 -0.208282,0.08533 -0.435832,0.128455 -0.682651,0.128455 z m 3.785769,0 c -0.352335,0 -0.660627,-0.078 -0.924878,-0.23489 -0.262416,-0.158735 -0.466111,-0.374356 -0.612916,-0.645949 -0.144971,-0.271591 -0.216541,-0.572543 -0.216541,-0.902858 0,-0.342243 0.0734,-0.645948 0.22021,-0.9102 0.148639,-0.266086 0.352336,-0.47712 0.609247,-0.631267 0.25691,-0.154147 0.543181,-0.231221 0.858817,-0.231221 0.268837,0 0.503727,0.04404 0.704671,0.132126 0.202776,0.08808 0.375274,0.2092 0.517491,0.363345 0.1413,0.154148 0.250487,0.330316 0.326645,0.528504 0.07523,0.198189 0.113773,0.412893 0.113773,0.642278 0,0.05873 -0.0036,0.120202 -0.01098,0.183508 -0.0055,0.06148 -0.0165,0.115606 -0.03304,0.161488 H 66.1317 V 18.11172 h 2.169063 l -0.389038,0.293612 c 0.03671,-0.190848 0.02662,-0.360592 -0.02934,-0.510152 -0.05689,-0.151394 -0.148641,-0.271591 -0.275261,-0.359675 -0.127538,-0.08808 -0.281686,-0.132126 -0.462439,-0.132126 -0.171582,0 -0.324809,0.04312 -0.458772,0.128456 -0.132123,0.08625 -0.233054,0.211951 -0.300953,0.378027 -0.06882,0.164239 -0.09451,0.363345 -0.07707,0.598235 -0.01744,0.20828 0.01098,0.392707 0.08441,0.554194 0.0734,0.159652 0.180756,0.282602 0.322973,0.370685 0.144054,0.08808 0.310131,0.132126 0.499143,0.132126 0.188095,0 0.348664,-0.03854 0.480791,-0.11744 0.132124,-0.08075 0.23489,-0.187178 0.308292,-0.319304 l 0.664301,0.322975 c -0.06607,0.164239 -0.170665,0.308294 -0.311966,0.433078 -0.142219,0.124786 -0.311044,0.222963 -0.506479,0.293612 -0.193603,0.07065 -0.406472,0.106439 -0.638611,0.106439 z m 3.510508,0 c -0.362429,0 -0.678062,-0.08533 -0.946901,-0.256912 -0.269758,-0.173415 -0.454185,-0.408304 -0.554194,-0.70467 L 69.83303,19.02559 c 0.08809,0.193599 0.210118,0.344994 0.367015,0.455099 0.155984,0.108272 0.330316,0.161487 0.521165,0.161487 0.151395,0 0.27159,-0.03304 0.359674,-0.09909 0.08808,-0.0679 0.132126,-0.155982 0.132126,-0.264252 0,-0.0679 -0.01835,-0.124785 -0.05505,-0.168827 -0.03487,-0.04404 -0.08258,-0.08075 -0.143136,-0.110106 -0.06148,-0.03119 -0.12754,-0.05873 -0.19819,-0.08075 l -0.557865,-0.154148 c -0.289025,-0.08258 -0.508315,-0.210117 -0.656957,-0.381696 -0.146807,-0.170663 -0.220211,-0.374356 -0.220211,-0.609246 0,-0.207364 0.0523,-0.389955 0.157817,-0.546853 0.107356,-0.155983 0.25691,-0.278933 0.447761,-0.367017 0.190846,-0.08808 0.408305,-0.132126 0.653287,-0.132126 0.322973,0 0.606495,0.07708 0.851476,0.231221 0.24682,0.154147 0.422986,0.372521 0.528502,0.653288 l -0.627595,0.293613 c -0.05872,-0.154147 -0.156899,-0.276179 -0.293612,-0.367016 -0.13763,-0.09268 -0.291778,-0.139466 -0.46244,-0.139466 -0.139468,0 -0.249572,0.03211 -0.330314,0.09543 -0.0789,0.06148 -0.117452,0.142219 -0.117452,0.24223 0,0.06148 0.0165,0.115606 0.05139,0.161487 0.03394,0.04679 0.08075,0.08441 0.139464,0.113772 0.06055,0.02936 0.132128,0.05689 0.212872,0.08075 l 0.543183,0.161487 c 0.280768,0.08625 0.497307,0.211952 0.649617,0.378026 0.151394,0.166992 0.227551,0.370687 0.227551,0.612917 0,0.205529 -0.05505,0.387202 -0.165158,0.543184 -0.108272,0.156899 -0.258746,0.278931 -0.451429,0.367015 -0.190849,0.08533 -0.416563,0.128455 -0.675308,0.128455 z m 0,0"
       style="fill:#9340a5;fill-opacity:1;fill-rule:nonzero;stroke:none;stroke-width:0.313187"
       aria-label="LS RI&#10;Life Sciences" />
  </g>
</svg>
